<svg width="4000" height="4000" viewBox="0 0 4000 4000" fill="none" xmlns="http://www.w3.org/2000/svg">
<g clip-path="url(#clip0_1_2)">
<path d="M2697 854.424C2680.08 856.647 2663.67 857.121 2647 861.745C2595.59 876.007 2550.91 910.727 2524.43 957C2458.19 1072.74 2521.8 1229.05 2654 1259.35C2677.5 1264.73 2702.04 1266.58 2726 1263.71C2826.36 1251.7 2903.55 1167.84 2907.96 1067C2911.91 976.775 2853.23 895.011 2769 865.309C2747.49 857.725 2719.89 851.418 2697 854.424Z" fill="#97A595"/>
<path d="M2693 905.424C2661.98 909.5 2633.11 917.438 2608 937.211C2591.54 950.169 2578.07 965.792 2567.72 984C2528.15 1053.6 2550.98 1145.66 2618 1189.3C2649.32 1209.7 2687.14 1217.3 2724 1212.71C2745.44 1210.05 2766.72 1201.98 2785 1190.57C2867.82 1138.91 2881.37 1017.14 2811 949.039C2793.97 932.563 2773.44 920.415 2751 913.001C2733.11 907.091 2711.87 902.945 2693 905.424Z" fill="#F4F4EB"/>
<path d="M2695 1042C2705.09 1035.14 2708.73 1034.97 2720 1039C2720 1005.74 2722.8 971.121 2719.91 938C2719.07 928.436 2703.53 922.838 2698.18 932.134C2694.37 938.757 2697 952.504 2697 960V1014C2697 1023.05 2698.58 1033.54 2695 1042Z" fill="#97A595"/>
<path d="M2705 1035.53C2684.94 1040.31 2692.64 1070.29 2713 1065.61C2731.91 1061.26 2723.96 1031.02 2705 1035.53Z" fill="#9B9087"/>
<path d="M2692 1048V1053H2693L2692 1048ZM2724 1048V1054H2725L2724 1048ZM2693 1055C2681.87 1072.87 2667.21 1089.31 2654.35 1106C2650.07 1111.55 2641.05 1119.27 2642.24 1126.99C2643.64 1136.04 2655.91 1140.52 2662.11 1133.79C2680.73 1113.55 2698.84 1088.94 2714 1066C2703.65 1066 2699 1063.5 2693 1055ZM497 1594H498V1129H788V1595H498L507 1640H788V2106H688C700.006 2134.69 720.426 2161.63 736.808 2188C742.035 2196.41 749.505 2214.03 758.184 2218.97C766.242 2223.56 784.79 2220 794 2220H886H1224V2164H1185V1070H675H549H518C514.643 1070 508.617 1068.85 506.086 1071.6C499.976 1078.25 498.766 1093.54 496 1102C485.712 1133.48 480.429 1167.28 475.87 1200C463.168 1291.15 467.058 1384.87 478.285 1476C483.12 1515.25 493.876 1554.74 497 1594ZM1691 1070V2164H1663L1652.6 2165.03L1651 2179V2220H1900C1896.37 2210.03 1890.36 2200.9 1886.4 2191C1875.74 2164.35 1867.02 2132.89 1867 2104H1866C1859.04 2109.27 1841.61 2106 1833 2106H1747V1640H1881C1900.04 1640 1924.54 1644.15 1943 1639.58C1953.17 1637.07 1963.95 1626.6 1973 1621.2C1990.19 1610.95 2009.05 1602.41 2028 1596V1595H1747V1129H2037V1593L2081 1583V1129H2377V1595H2211V1596C2227.18 1602.74 2242.84 1611.86 2257 1622.15C2264.06 1627.28 2271.78 1636.47 2280 1639.4C2288.33 1642.37 2301.18 1640 2310 1640H2377C2377 1697.55 2373.14 1756.6 2377.09 1814C2378.59 1835.75 2385.41 1857.13 2386.91 1879C2388.36 1900.18 2383.7 1922.85 2387.15 1943.96C2388.34 1951.23 2400.92 1958.2 2405.48 1964C2416.23 1977.67 2421.1 1995.78 2419.91 2013C2418.84 2028.49 2411.89 2043.43 2401.71 2055C2397.65 2059.61 2388.97 2063.57 2386.6 2069.18C2383.86 2075.7 2384.58 2085.95 2383.93 2093C2382.71 2106.02 2380.38 2119.23 2377.58 2132C2370.6 2163.77 2357.72 2190.48 2345 2220H2473V2179L2471.4 2165.03L2461 2164H2433V1070H1691ZM2940 1070V2164L2913.51 2165.03L2907.57 2178L2900.42 2193L2900 2220H3427L3408 2104H3407C3401.73 2108 3391.42 2106 3385 2106H3330V1640C3337.27 1640 3356.62 1643.46 3362.4 1638.97C3365.14 1636.84 3365.16 1630.18 3365.8 1627C3368.07 1615.64 3370.79 1604.37 3373 1593H3372C3363.7 1599.29 3340.37 1595 3330 1595V1129H3530V1133H3531L3532 1070H2940Z" fill="#97A595"/>
<path d="M498 1129V1595H788V1129H498ZM833 1129V1595H1129V1129H833ZM1747 1129V1595H1962H2016C2021.4 1595 2031.12 1597.35 2035.4 1593.16C2040.21 1588.45 2037 1569.5 2037 1563V1477V1129H1747ZM2081 1129V1583C2110.95 1575.79 2145.15 1577.83 2175 1584.42C2186.52 1586.97 2198.49 1593.94 2210 1595.19C2227.44 1597.07 2246.41 1595 2264 1595H2377V1129H2081ZM2995 1129V1595H3285V1129H2995ZM3330 1129V1595H3360C3363.13 1595 3368.63 1596.02 3371.27 1593.97C3373.81 1591.99 3374.14 1586.91 3374.87 1584C3376.81 1576.28 3379.09 1568.65 3381.29 1561C3389.36 1532.93 3399.78 1505.76 3411.42 1479C3427 1443.19 3448.54 1410.32 3465.22 1375C3491.42 1319.54 3510.54 1260.36 3521.42 1200C3525.61 1176.82 3530 1152.6 3530 1129H3330Z" fill="#E4D4B4"/>
<path d="M3529 1139V1145H3530L3529 1139ZM3528 1150V1155H3529L3528 1150ZM3527 1159V1163H3528L3527 1159ZM3526 1167V1171H3527L3526 1167ZM3525 1175V1178H3526L3525 1175ZM3524 1181V1185H3525L3524 1181ZM3523 1188V1191H3524L3523 1188ZM3522 1194V1197H3523L3522 1194ZM3521 1199V1202H3522L3521 1199ZM3520 1205V1208H3521L3520 1205ZM3518 1215V1218H3519L3518 1215ZM3516 1224V1227H3517L3516 1224ZM3513 1237V1240H3514L3513 1237ZM3512 1241V1244H3513L3512 1241Z" fill="#9EB9D7"/>
<path d="M921 1245C915.944 1257.14 911.144 1260.44 898 1261L908.544 1274L907 1290L922 1283.78L937 1290L935.467 1274L946 1261C932.856 1260.44 928.056 1257.14 923 1245H921ZM3434 1245C3428.28 1258.73 3423.9 1258.08 3411 1262L3421.53 1273.71L3420 1290L3434.58 1283.29L3450 1290L3448.2 1274L3458 1261C3442.8 1260.69 3443.32 1254.23 3434 1245Z" fill="#F0F6FC"/>
<path d="M3511 1245V1248H3512L3511 1245ZM3422 1259V1260H3426L3422 1259ZM3444 1259V1260H3447L3444 1259ZM3415 1260V1261H3419L3415 1260ZM3451 1260V1261H3454L3451 1260ZM3421 1278V1281H3422L3421 1278ZM3448 1280V1283H3449L3448 1280ZM3449 1286V1289H3450L3449 1286Z" fill="#9EB9D7"/>
<path d="M589 1292C583.57 1305.04 579.215 1306.54 566 1309L576.544 1321.58L575 1338C588.813 1331.55 591.187 1331.55 605 1338L603.456 1321.42L614 1309C600.786 1306.54 596.43 1305.04 591 1292H589ZM3102 1292C3096.74 1304.63 3092.26 1307.32 3079 1309L3089.54 1321.58L3088 1337L3102 1331.04L3117 1337L3116.12 1321L3127 1309L3110.64 1305.41L3102 1292Z" fill="#F0F6FC"/>
<path d="M3087 1307V1308H3090L3087 1307ZM3115 1307V1308H3119L3115 1307ZM3080 1308V1309H3083L3080 1308ZM3122 1308V1309H3125L3122 1308ZM3115 1322V1325H3116L3115 1322ZM3089 1325V1328H3090L3089 1325ZM3116 1328V1331H3117L3116 1328ZM3088 1331V1334H3089L3088 1331ZM3117 1334V1338H3118L3117 1334ZM1056 1380V1381H1059L1056 1380Z" fill="#293830"/>
<path d="M1057 1380C1049.61 1392.65 1047.99 1393.63 1034 1397L1043.88 1409L1043 1425L1057 1419.12L1072 1425C1071.74 1412.31 1069.65 1407.64 1081 1399V1397L1065.64 1393.4L1057 1380Z" fill="#F0F6FC"/>
<path d="M732 1434C724.948 1446.08 722.59 1449.85 708 1451C716.455 1463 719.838 1464.94 717 1480L732.576 1473.28L747 1480L745.643 1464L756 1451C740.844 1449.8 740.675 1444.47 732 1434Z" fill="#F0F6FC"/>
<path d="M3244 1435C3238.94 1447.14 3234.14 1450.44 3221 1451L3231.69 1464L3230 1480C3243.81 1473.55 3246.19 1473.55 3260 1480L3258.31 1464L3269 1451C3255.86 1450.44 3251.06 1447.14 3246 1435H3244Z" fill="#F0F6FC"/>
<path d="M3231 1449V1450H3234L3231 1449ZM3256 1449V1450H3259L3256 1449ZM3224 1450V1451H3227L3224 1450ZM3263 1450V1451H3266L3263 1450ZM3232 1463V1466H3233L3232 1463ZM3257 1463V1466H3258L3257 1463ZM3231 1469V1472H3232L3231 1469ZM3258 1469V1472H3259L3258 1469Z" fill="#9EB9D7"/>
<path d="M2110 1579.42C2083.72 1582.88 2058.45 1586.18 2033 1594.34C1958.73 1618.17 1892.87 1670.45 1863.45 1744C1854.34 1766.77 1850.14 1789.75 1847.83 1814C1845.42 1839.33 1848.08 1864.96 1852.25 1890C1853.85 1899.61 1854.54 1911.96 1860.56 1920C1865.62 1926.76 1873.96 1931.04 1881 1935.42C1894.68 1943.94 1908.58 1952.04 1923 1959.25C1999.46 1997.48 2085.41 2002.9 2169 1991.72C2227.51 1983.89 2285.89 1970.26 2337 1939.6C2351.84 1930.7 2376.91 1917.22 2384.45 1901C2389.33 1890.49 2386.66 1877 2385.13 1866C2381.63 1840.8 2377.75 1815.51 2370.71 1791C2340.72 1686.54 2258.83 1587.96 2144 1579.91C2132.83 1579.13 2121.19 1577.95 2110 1579.42Z" fill="#975B3B"/>
<path d="M508 1640C532.915 1760.77 578.126 1876.78 628.139 1989C641.154 2018.2 655.638 2047.04 671.139 2075C675.622 2083.09 680.651 2099.86 688.529 2104.97C694.409 2108.79 709.101 2106 716 2106H788V1640H508ZM833 1640V2106H1129V1640H833ZM1747 1640V2106H1866C1865.8 2096.29 1866.44 2079.07 1862.4 2070.27C1860.6 2066.36 1853.43 2064.56 1850 2062.25C1842.81 2057.42 1836.42 2051.09 1831.44 2044C1809.2 2012.32 1816.94 1959.61 1854 1942C1850.75 1928.34 1855.71 1914.45 1854.3 1901C1851.5 1874.42 1845.86 1848.97 1847.04 1822C1850.05 1753.35 1885.61 1679.63 1944 1641L1925 1640H1885H1747ZM2280 1640C2291.09 1655.7 2307.38 1668.34 2319.1 1684C2346.51 1720.59 2370.08 1769.17 2376 1815H2377V1640H2280ZM2995 1640V2106H3285V1640H2995ZM3330 1640V2106H3407C3405.75 2090.75 3399.1 2075.55 3394.72 2061C3386.67 2034.27 3379.03 2007.31 3373.21 1980C3356.33 1900.71 3348.42 1820.97 3351.96 1740C3353.4 1707.08 3355.08 1672.17 3363 1640H3330Z" fill="#E4D4B4"/>
<path d="M3362 1641V1644H3363L3362 1641ZM509 1646V1649H510L509 1646ZM3361 1647V1651H3362L3361 1647ZM3360 1653V1657H3361L3360 1653ZM3359 1660V1664H3360L3359 1660ZM3358 1667V1670H3359L3358 1667ZM3357 1674V1678H3358L3357 1674ZM3356 1682V1687H3357L3356 1682ZM3355 1691V1696H3356L3355 1691ZM3354 1701V1706H3355L3354 1701ZM3353 1712V1718H3354L3353 1712ZM3352 1726V1734H3353L3352 1726ZM3351 1744V1759H3352L3351 1744ZM3351 1802V1817H3352L3351 1802Z" fill="#9EB9D7"/>
<path d="M2377 1817V1820H2378L2377 1817Z" fill="#78A4CD"/>
<path d="M3352 1827V1836H3353L3352 1827Z" fill="#9EB9D7"/>
<path d="M2380 1833V1836H2381L2380 1833Z" fill="#78A4CD"/>
<path d="M3353 1843V1850H3354L3353 1843Z" fill="#9EB9D7"/>
<path d="M2382 1845V1848H2383L2382 1845Z" fill="#78A4CD"/>
<path d="M3354 1856V1862H3355L3354 1856Z" fill="#9EB9D7"/>
<path d="M2384 1859V1862H2385L2384 1859Z" fill="#78A4CD"/>
<path d="M3355 1867V1872H3356L3355 1867Z" fill="#9EB9D7"/>
<path d="M2386 1875V1879H2387L2386 1875Z" fill="#78A4CD"/>
<path d="M3356 1876V1881H3357L3356 1876ZM3357 1885V1889H3358L3357 1885ZM3358 1893V1897H3359L3358 1893Z" fill="#9EB9D7"/>
<path d="M1388 1900V1901H1394L1388 1900Z" fill="#78A4CD"/>
<path d="M1394 1900.42C1332.89 1908.46 1275 1946.1 1275 2014C1275 2025.22 1273.79 2045.32 1280.73 2054.82C1286.73 2063.03 1301.06 2068.84 1310 2073.24C1343.5 2089.76 1381.46 2092.14 1418 2087.71C1445.08 2084.43 1473.64 2078.4 1497 2063.68C1503.67 2059.48 1514.1 2054.24 1517.82 2046.99C1524.17 2034.6 1515.59 2008.52 1512 1996C1497.53 1945.59 1451.92 1892.81 1394 1900.42Z" fill="#975B3B"/>
<path d="M1407 1900V1901H1413L1407 1900Z" fill="#78A4CD"/>
<path d="M2385 1900C2379.05 1910.29 2368.34 1917.47 2359 1924.47C2337.77 1940.4 2314.61 1952.96 2290 1962.8C2247.77 1979.69 2202.12 1988.8 2157 1993.17C2096.75 1999 2037.66 1998.68 1979 1981.86C1945.27 1972.19 1913.61 1955.59 1884 1937.05C1870.7 1928.72 1856.42 1921.37 1855 1904H1854C1854 1914.08 1857.19 1930.56 1853.4 1939.9C1851.74 1943.97 1846.17 1946.35 1843 1949.17C1836.64 1954.84 1831.16 1961.41 1827.26 1969C1810.75 2001.11 1820.75 2060.47 1863 2068C1865.62 2128.92 1877.1 2195.29 1916.46 2244C1935.04 2266.99 1960.43 2283.59 1986 2297.86C2022.97 2318.49 2064.68 2333.8 2107 2337.83C2175.7 2344.37 2249.86 2314.31 2302 2270.56C2344.3 2235.07 2367 2184.12 2378 2131C2382.03 2111.53 2381.22 2090.02 2386.32 2071.04C2388.33 2063.56 2401.69 2056.6 2406.51 2050C2420.62 2030.68 2424.29 2003.39 2415.54 1981C2412.01 1971.99 2406.79 1963.85 2400 1957C2396.32 1953.29 2388.69 1949.18 2387.32 1943.96C2384.08 1931.67 2392.82 1910.33 2385 1900Z" fill="#F3B9AE"/>
<path d="M2789 1900V1901H2795L2789 1900Z" fill="#78A4CD"/>
<path d="M2795 1900.42C2746.68 1906.77 2700.3 1928.34 2681.81 1977C2677.96 1987.14 2676.85 1997.33 2675.83 2008C2674.65 2020.31 2673.86 2044.47 2681.65 2054.91C2687.78 2063.1 2701.06 2068.29 2710 2072.75C2743.56 2089.52 2781.26 2092.28 2818 2087.72C2845.14 2084.35 2872.1 2078.51 2896 2064.72C2903.43 2060.43 2915.23 2054.11 2918.91 2045.96C2924.32 2033.97 2916.48 2011.08 2913.37 1999C2900.16 1947.62 2853.65 1892.72 2795 1900.42Z" fill="#975B3B"/>
<path d="M2808 1900V1901H2813L2808 1900Z" fill="#78A4CD"/>
<path d="M2813 1900V1901H2816L2813 1900Z" fill="#9EB9D7"/>
<path d="M1381 1901V1902H1384L1381 1901ZM1417 1901V1902H1420L1417 1901Z" fill="#78A4CD"/>
<path d="M2781 1901V1902H2784L2781 1901Z" fill="#78A4CD"/>
<path d="M3359 1901V1904H3360L3359 1901Z" fill="#9EB9D7"/>
<path d="M3360 1908V1912H3361L3360 1908Z" fill="#9EB9D7"/>
<path d="M1853 1909V1941H1854L1853 1909Z" fill="#9EB9D7"/>
<path d="M3361 1915V1918H3362L3361 1915Z" fill="#9EB9D7"/>
<path d="M3362 1921V1924H3363L3362 1921Z" fill="#9EB9D7"/>
<path d="M3363 1927V1931H3364L3363 1927Z" fill="#9EB9D7"/>
<path d="M3364 1933V1936H3365L3364 1933Z" fill="#9EB9D7"/>
<path d="M3365 1939V1942H3366L3365 1939Z" fill="#9EB9D7"/>
<path d="M3368 1955V1958H3369L3368 1955Z" fill="#9EB9D7"/>
<path d="M3369 1960V1963H3370L3369 1960Z" fill="#9EB9D7"/>
<path d="M3370 1965V1968H3371L3370 1965Z" fill="#9EB9D7"/>
<path d="M3373 1979V1982H3374L3373 1979Z" fill="#9EB9D7"/>
<path d="M2207 1985V1986H2210L2207 1985Z" fill="#78A4CD"/>
<path d="M1820 1986V1989H1821L1820 1986Z" fill="#9EB9D7"/>
<path d="M2196 1987V1988H2199L2196 1987Z" fill="#78A4CD"/>
<path d="M2176 1990V1991H2179L2176 1990Z" fill="#78A4CD"/>
<path d="M1819 1992V1995H1820L1819 1992Z" fill="#9EB9D7"/>
<path d="M3376 1992V1995H3377L3376 1992Z" fill="#9EB9D7"/>
<path d="M2152 1993V1994H2155L2152 1993Z" fill="#78A4CD"/>
<path d="M2041 1994V1995H2044L2041 1994ZM2141 1994V1995H2145L2141 1994Z" fill="#78A4CD"/>
<path d="M2052 1995V1996H2056L2052 1995ZM2128 1995V1996H2132L2128 1995Z" fill="#78A4CD"/>
<path d="M2068 1996V1997H2076L2068 1996ZM2105 1996V1997H2114L2105 1996Z" fill="#78A4CD"/>
<path d="M2676 1996V1999H2677L2676 1996Z" fill="#78A4CD"/>
<path d="M1275 1998V2002H1276L1275 1998Z" fill="#78A4CD"/>
<path d="M2675 2003V2011H2676L2675 2003Z" fill="#78A4CD"/>
<path d="M1274 2005V2008H1275L1274 2005Z" fill="#9EB9D7"/>
<path d="M1274 2008V2022H1275L1274 2008Z" fill="#78A4CD"/>
<path d="M1819 2011V2015H1820L1819 2011Z" fill="#9EB9D7"/>
<path d="M1516 2014V2017H1517L1516 2014Z" fill="#78A4CD"/>
<path d="M2917 2016V2019H2918L2917 2016Z" fill="#78A4CD"/>
<path d="M2675 2019V2027H2676L2675 2019ZM1517 2020V2023H1518L1517 2020Z" fill="#78A4CD"/>
<path d="M1274 2022V2026H1275L1274 2022Z" fill="#9EB9D7"/>
<path d="M2918 2022V2025H2919L2918 2022Z" fill="#78A4CD"/>
<path d="M1518 2027V2030H1519L1518 2027Z" fill="#78A4CD"/>
<path d="M2675 2027V2030H2676L2675 2027ZM2919 2027V2030H2920L2919 2027Z" fill="#9EB9D7"/>
<path d="M1275 2029V2033H1276L1275 2029ZM2919 2030V2033H2920L2919 2030Z" fill="#78A4CD"/>
<path d="M1519 2032V2035H1520L1519 2032Z" fill="#9EB9D7"/>
<path d="M2676 2032V2036H2677L2676 2032Z" fill="#78A4CD"/>
<path d="M1519 2035V2044H1520L1519 2035Z" fill="#78A4CD"/>
<path d="M2920 2036V2043H2921L2920 2036Z" fill="#9EB9D7"/>
<path d="M1276 2037V2040H1277L1276 2037Z" fill="#78A4CD"/>
<path d="M1277 2043V2046H1278L1277 2043Z" fill="#78A4CD"/>
<path d="M2678 2045V2048H2679L2678 2045Z" fill="#78A4CD"/>
<path d="M2919 2046C2909.2 2059.79 2890.34 2068.72 2875 2074.8C2832.3 2091.71 2776.98 2096.67 2733 2082.33C2718.97 2077.76 2705.51 2071.12 2693 2063.32C2686.87 2059.49 2681.16 2056.26 2679 2049H2678C2678 2053.41 2679.18 2059.86 2676.97 2063.83C2671.18 2074.26 2662.32 2078.34 2662.05 2092C2661.89 2100.51 2665.27 2109.66 2671.3 2115.7C2674.51 2118.91 2680.62 2120.77 2682.4 2125.1C2685.26 2132.1 2684.17 2142.45 2685.44 2150C2688.78 2169.96 2695.44 2189.68 2709.17 2205C2757.13 2258.47 2847.71 2255.74 2893.7 2202C2912.56 2179.96 2913.61 2153.72 2919.48 2127C2921.42 2118.18 2931.54 2113.36 2934.07 2104C2936.64 2094.53 2935.12 2083.01 2929.36 2075C2926.85 2071.5 2922.2 2068.96 2920.6 2064.91C2918.26 2059 2921.48 2051.92 2919 2046Z" fill="#F3B9AE"/>
<path d="M1518 2047C1474.77 2090.11 1392.85 2099.65 1336 2083.42C1321.16 2079.19 1307.09 2072.45 1294 2064.32C1288.15 2060.68 1282.02 2057.46 1279 2051H1278C1278 2064.78 1269.55 2067.28 1264.35 2079C1257.67 2094.03 1264.04 2118.52 1282 2122C1282.08 2150.44 1289.16 2181.76 1307.62 2204C1316.76 2215.01 1330.34 2222.92 1343 2229.25C1389.22 2252.36 1437.8 2247.28 1479 2215.76C1498.24 2201.05 1509.37 2178.25 1514.57 2155C1516.76 2145.25 1516.56 2134.56 1519.3 2125.04C1521.55 2117.22 1530.83 2112.62 1533.43 2104C1536.38 2094.2 1534.63 2083.42 1528.78 2075C1526.45 2071.66 1522.09 2069.06 1520.45 2065.39C1517.86 2059.56 1521.87 2052.67 1518 2047Z" fill="#F3B9AE"/>
<path d="M1863 2073V2079H1864L1863 2073Z" fill="#9EB9D7"/>
<path d="M1864 2085V2090H1865L1864 2085Z" fill="#9EB9D7"/>
<path d="M2826 2086V2087H2829L2826 2086Z" fill="#78A4CD"/>
<path d="M2754 2087V2088H2757L2754 2087ZM2819 2087V2088H2822L2819 2087Z" fill="#78A4CD"/>
<path d="M1409 2088V2089H1412L1409 2088Z" fill="#78A4CD"/>
<path d="M2761 2088V2089H2764L2761 2088ZM2810 2088V2089H2813L2810 2088Z" fill="#78A4CD"/>
<path d="M1372 2089V2090H1378L1372 2089ZM1392 2089V2090H1399L1392 2089Z" fill="#78A4CD"/>
<path d="M2769 2089V2090H2772L2769 2089Z" fill="#9EB9D7"/>
<path d="M2772 2089V2090H2779L2772 2089ZM2793 2089V2090H2800L2793 2089Z" fill="#78A4CD"/>
<path d="M1865 2095V2100H1866L1865 2095Z" fill="#9EB9D7"/>
<path d="M1476 2217C1480.41 2235.53 1464.74 2254.39 1448 2260.3C1434.92 2264.92 1419.65 2263 1406 2263C1376.28 2263 1340.63 2268.25 1326.34 2235C1324.2 2230.02 1323.23 2224.39 1323 2219L1312 2225C1315.16 2232.31 1316.59 2240.07 1320.76 2247C1333.41 2268.02 1353.44 2272 1376 2272V2324V2365C1376 2369.63 1374.49 2377.66 1377.18 2381.68C1379.35 2384.93 1384.66 2384 1388 2384C1395.06 2384 1421.3 2387.85 1424.02 2379.94C1426.2 2373.57 1424 2362.83 1424 2356V2301C1424 2294.12 1421.53 2280.4 1425.18 2274.36C1427.6 2270.36 1439.8 2272.4 1444 2271.71C1455.77 2269.8 1466.83 2263.86 1474.83 2255C1485.3 2243.39 1493.22 2225.18 1476 2217Z" fill="#C98A6B"/>
<path d="M2877 2217C2881.24 2235.45 2865.36 2254.1 2849 2260.12C2836.17 2264.85 2821.44 2263 2808 2263C2778.65 2263 2739.03 2268.91 2726.55 2234C2724.81 2229.13 2724.04 2224.15 2724 2219C2707.21 2223.94 2717.4 2242.11 2724.76 2252C2737.71 2269.4 2755.98 2272 2776 2272V2324V2365C2776 2369.73 2774.6 2378.22 2777 2382C2778.99 2385.12 2783.74 2384 2787 2384H2814C2817.21 2384 2823.2 2385.29 2825 2382C2827.49 2377.44 2825 2364.34 2825 2359V2297C2825 2291.66 2822.51 2278.56 2825 2274C2827.78 2268.91 2841.09 2273.23 2846 2272C2855.58 2269.6 2863.9 2265.07 2872 2259C2878.63 2254.02 2883.64 2244.09 2886 2237C2887.28 2233.15 2886.25 2226.06 2890 2227V2226L2877 2217Z" fill="#C98A6B"/>
<path d="M1323 2218C1323.04 2223.4 1323.73 2228.88 1325.55 2234C1337.23 2266.97 1371.83 2263 1400 2263C1427.63 2263 1464.35 2267.37 1474.97 2234C1476.68 2228.64 1477 2223.57 1477 2218C1462.08 2223.65 1449.45 2234.5 1434 2239.65C1405.05 2249.29 1376.29 2244.29 1349 2232.14C1339.97 2228.12 1332.05 2221.75 1323 2218Z" fill="#975B3B"/>
<path d="M2724 2218C2724 2223.54 2724.5 2228.69 2726.22 2234C2736.88 2267 2772.53 2263 2800 2263C2827.96 2263 2864.69 2267.54 2875.64 2234C2877.32 2228.85 2877.96 2223.39 2878 2218C2862.34 2222.99 2849.09 2235.09 2833 2240.25C2791.65 2253.52 2760.11 2235.08 2724 2218Z" fill="#975B3B"/>
<path d="M1487 2225C1485.39 2245.2 1471.25 2262.97 1452 2269.48C1447.15 2271.12 1426.49 2270.35 1424.65 2274.32C1421.9 2280.27 1424 2291.5 1424 2298V2355C1424 2361.64 1426.61 2375.15 1423.05 2380.85C1420.88 2384.34 1416.59 2383.99 1413 2384C1405.54 2384.02 1380.09 2387.94 1376.74 2379.94C1373.23 2371.55 1376 2357.05 1376 2348V2272C1369.44 2272 1362.44 2272.7 1356 2271.33C1331.64 2266.17 1320.43 2247.77 1313 2226C1296.69 2233.27 1282.25 2253.92 1271.88 2268C1241.17 2309.72 1215.22 2371.13 1221.72 2424C1223.9 2441.81 1227.61 2464.76 1241.62 2477.68C1245.99 2481.71 1253.55 2479.64 1259 2480.17C1270.69 2481.3 1281.74 2484.99 1293 2488C1301.69 2462.53 1326.11 2466.16 1341.91 2483C1349.9 2491.52 1355.66 2502.66 1358.35 2514C1359.76 2520 1359.37 2527.42 1361.98 2533C1364.9 2539.22 1371.01 2544.51 1375.13 2550C1383.64 2561.37 1391.09 2573.94 1394 2588H1395C1398.87 2559.41 1423.15 2545.15 1437.4 2523C1440.92 2517.53 1440.48 2509.18 1442.52 2503C1448.02 2486.3 1461.81 2468.71 1480 2465.46C1488.39 2463.96 1496.31 2467.72 1501.79 2474.01C1503.99 2476.55 1505.38 2481.25 1508.39 2482.88C1511.31 2484.47 1515.99 2482.39 1519 2481.8C1527.64 2480.14 1542.28 2482.77 1548.96 2476.85C1568.33 2459.72 1573 2427.38 1573 2403C1573 2354.78 1553.7 2306.03 1526 2267C1515.14 2251.7 1502.51 2235.79 1487 2225Z" fill="#975B3B"/>
<path d="M2713 2225C2662.18 2269.4 2622 2338.74 2622 2408C2622 2428.94 2624.04 2464.64 2643.18 2478.4C2647.59 2481.56 2654.89 2479.68 2660 2480.17C2671.69 2481.3 2682.66 2485.38 2694 2488C2700.29 2461.77 2726.98 2467 2741.71 2482.17C2750.43 2491.15 2756.6 2502.79 2759.33 2515C2760.58 2520.54 2759.67 2527.97 2762.18 2533C2771.7 2552.05 2790.91 2564.07 2794 2587H2795C2800.77 2571.96 2807.15 2558.76 2817.21 2546C2823.65 2537.84 2832.88 2530.67 2838.4 2522C2841.4 2517.28 2840.87 2510.32 2842.44 2505C2845.36 2495.08 2850.84 2485.5 2858.17 2478.17C2873.17 2463.17 2900.53 2458.78 2908 2484C2916.02 2482.96 2923.9 2480.39 2932 2480.04C2937.01 2479.82 2943.56 2481.27 2947.99 2478.4C2967.33 2465.86 2971.11 2433.58 2973.17 2413C2978.21 2362.62 2955.47 2310 2928 2269C2918.18 2254.34 2903.9 2234.25 2888 2226C2883.29 2245.11 2874.2 2260.79 2855 2268.55C2848.03 2271.37 2841.43 2271.98 2834 2272C2831.3 2272.01 2827.05 2271.38 2825.6 2274.32C2822.76 2280.09 2825 2291.62 2825 2298V2356C2825 2362.58 2827.39 2375.08 2823.97 2380.85C2821.73 2384.64 2816.76 2384 2813 2384C2804.74 2384 2780.56 2388.17 2776.89 2378.98C2773.31 2370.01 2776 2355.59 2776 2346V2272C2753.88 2272 2734.65 2267.24 2722.07 2247C2717.73 2240.02 2716.75 2232.01 2713 2225Z" fill="#975B3B"/>
<path d="M1391 2244V2245H1395L1391 2244Z" fill="#78A4CD"/>
<path d="M1407 2244V2245H1411L1407 2244Z" fill="#78A4CD"/>
<path d="M2791 2244V2245H2795L2791 2244Z" fill="#78A4CD"/>
<path d="M2808 2244V2245H2812L2808 2244Z" fill="#78A4CD"/>
<path d="M1386 2272V2375H1414C1416.36 2367 1415 2357.31 1415 2349V2299C1415 2293.15 1417.68 2278.29 1413.97 2273.6C1410 2268.59 1392.08 2272.63 1386 2272Z" fill="#975B3B"/>
<path d="M2787 2272L2786 2296V2342L2787 2375C2792.72 2374.63 2811.2 2378.19 2814.94 2373.43C2818.09 2369.4 2816 2357.87 2816 2353V2296C2816 2290.89 2818.36 2277.6 2814.93 2273.52C2810.99 2268.86 2792.74 2272.3 2787 2272Z" fill="#975B3B"/>
<path d="M2293 2278C2271.75 2288.57 2252.78 2303.69 2231 2313.69C2176 2338.94 2118.55 2345.65 2060 2328.86C2032.2 2320.89 2004.88 2309.12 1980 2294.4C1973.88 2290.77 1968.03 2286.77 1962 2283.02C1960.22 2281.91 1956.95 2279.52 1955.03 2281.66C1951.12 2286.01 1955.66 2300.93 1956.79 2306C1963.07 2334.13 1983.36 2357.28 2009 2369.74C2030.5 2380.19 2054.74 2379 2078 2379H2170C2194.25 2379 2218.72 2379.82 2241 2368.75C2270.17 2354.26 2303.53 2313.63 2293 2278Z" fill="#975B3B"/>
<path d="M2294 2279C2294 2290.85 2292.81 2302.73 2289 2314C2286.09 2322.57 2281.97 2330.66 2276.7 2338C2238.03 2391.91 2164.71 2379 2107 2379C2074.83 2379 2037.6 2383.91 2008 2368.74C1974.74 2351.69 1954.02 2318.32 1954 2281C1948.15 2283.52 1935.99 2288.76 1933.62 2295.09C1931.95 2299.55 1934.5 2306.6 1935.63 2311C1939.47 2326.02 1946.22 2340.56 1955.48 2353C1973.68 2377.46 2001.99 2393.87 2032 2398.56C2044.88 2400.57 2058.04 2399.53 2071 2400V2515V2606C2071 2615.1 2067.56 2633.2 2072.74 2640.95C2077.4 2647.92 2087.81 2646 2095 2646H2155C2162.62 2646 2172.83 2647.69 2176.47 2639C2178.41 2634.37 2177 2627.92 2177 2623V2586V2459V2418C2177 2413.55 2175.45 2405.4 2177.94 2401.52C2179.8 2398.62 2185.17 2399.95 2188.01 2399.99C2197.68 2400.12 2207.43 2400.06 2217 2398.56C2243.28 2394.45 2267.42 2382.03 2285.99 2363C2299.27 2349.38 2307.82 2332.33 2312.37 2314C2313.65 2308.86 2316.47 2300.31 2314.4 2295.17C2311.7 2288.5 2300.04 2282.37 2294 2279Z" fill="#C98A6B"/>
<path d="M1932 2295C1900.1 2317.94 1872.3 2350.04 1848.35 2381C1781.54 2467.35 1740.15 2574.6 1729.83 2683C1725.53 2728.18 1732.38 2777.15 1752.75 2818C1758.99 2830.5 1767.69 2848.05 1779.29 2856.4C1783.29 2859.28 1788.54 2857.4 1793 2857.09C1800.26 2856.59 1807.78 2857.48 1815 2858.17C1840.28 2860.59 1863.52 2869.34 1888 2875C1889.65 2867.88 1892.73 2861.13 1896.7 2855C1922.43 2815.28 1968.8 2835.65 1994.96 2863C2014.15 2883.07 2026.63 2909.03 2032.58 2936C2035.06 2947.25 2032.97 2963.91 2038.03 2974C2043.53 2984.98 2056.26 2995.25 2064 3005C2084.49 3030.84 2107.3 3065.11 2110 3099H2112C2113.84 3056.79 2149.37 3012.79 2176.17 2983C2185.56 2972.56 2202.55 2961.12 2208.97 2948.96C2213.49 2940.4 2212.22 2926.53 2214.73 2917C2221.06 2892.97 2232.78 2869.44 2251.04 2852.17C2279.15 2825.58 2323.35 2810.43 2350.52 2847C2355.04 2853.08 2358.56 2859.84 2361 2867C2380.21 2861.59 2400.13 2858.45 2420 2857.09C2427.91 2856.55 2439.25 2860.74 2446 2855.68C2456.41 2847.88 2465.06 2834.88 2471.95 2824C2495.21 2787.27 2503.16 2740.88 2505.04 2698C2509.85 2588.12 2462.65 2474.28 2399.71 2386C2376.7 2353.72 2348.38 2317.08 2315 2295C2314.01 2342.85 2275.69 2381.46 2232 2394.97C2219.07 2398.97 2205.45 2400.02 2192 2400C2188.54 2399.99 2179.56 2397.73 2177.6 2401.46C2175.58 2405.32 2177 2412.73 2177 2417V2454V2587V2623C2177 2627.81 2178.4 2634.67 2176 2639.04C2171.37 2647.43 2162.11 2646 2154 2646H2094C2085.93 2646 2075.34 2647.36 2071.74 2638C2069.36 2631.8 2071 2622.58 2071 2616V2567V2400C2058.45 2398.67 2045.6 2400.53 2033 2398.56C1998.53 2393.17 1966.61 2372.21 1948.86 2342C1940.04 2326.98 1939.19 2309.97 1932 2295Z" fill="#975B3B"/>
<path d="M2102 2337V2338H2105L2102 2337ZM2147 2337V2338H2150L2147 2337Z" fill="#78A4CD"/>
<path d="M2118 2338V2339H2134L2118 2338Z" fill="#78A4CD"/>
<path d="M2972 2378V2381H2973L2972 2378ZM2624 2379V2382H2625L2624 2379Z" fill="#78A4CD"/>
<path d="M1572 2380V2383H1573L1572 2380Z" fill="#9EB9D7"/>
<path d="M1223 2381V2384H1224L1223 2381Z" fill="#78A4CD"/>
<path d="M1572 2383V2387H1573L1572 2383Z" fill="#78A4CD"/>
<path d="M2973 2383V2386H2974L2973 2383Z" fill="#9EB9D7"/>
<path d="M2623 2385V2388H2624L2623 2385Z" fill="#78A4CD"/>
<path d="M2973 2386V2391H2974L2973 2386ZM1222 2388V2391H1223L1222 2388Z" fill="#78A4CD"/>
<path d="M1573 2390V2394H1574L1573 2390Z" fill="#9EB9D7"/>
<path d="M2622 2392V2397H2623L2622 2392Z" fill="#78A4CD"/>
<path d="M1221 2393V2396H1222L1221 2393Z" fill="#9EB9D7"/>
<path d="M1573 2394V2408H1574L1573 2394Z" fill="#78A4CD"/>
<path d="M1221 2396V2401H1222L1221 2396Z" fill="#78A4CD"/>
<path d="M2974 2397V2405H2975L2974 2397Z" fill="#9EB9D7"/>
<path d="M2092 2400V2625H2156V2400H2092Z" fill="#975B3B"/>
<path d="M2621 2400V2404H2622L2621 2400Z" fill="#9EB9D7"/>
<path d="M2621 2404V2420H2622L2621 2404Z" fill="#78A4CD"/>
<path d="M1220 2406V2417H1221L1220 2406Z" fill="#9EB9D7"/>
<path d="M1573 2408V2412H1574L1573 2408Z" fill="#9EB9D7"/>
<path d="M2973 2410V2415H2974L2973 2410Z" fill="#78A4CD"/>
<path d="M1572 2415V2418H1573L1572 2415Z" fill="#78A4CD"/>
<path d="M2621 2420V2423H2622L2621 2420Z" fill="#9EB9D7"/>
<path d="M1221 2422V2427H1222L1221 2422Z" fill="#78A4CD"/>
<path d="M2622 2426V2430H2623L2622 2426Z" fill="#78A4CD"/>
<path d="M1570 2430V2433H1571L1570 2430Z" fill="#9EB9D7"/>
<path d="M1222 2431V2434H1223L1222 2431Z" fill="#78A4CD"/>
<path d="M2970 2432V2435H2971L2970 2432Z" fill="#78A4CD"/>
<path d="M2623 2433V2436H2624L2623 2433Z" fill="#78A4CD"/>
<path d="M1479 2465V2466H1482L1479 2465Z" fill="#78A4CD"/>
<path d="M1439 2521C1460.91 2507.3 1481.12 2488.62 1508 2485C1498.72 2461.45 1473.76 2461.01 1457.17 2478.09C1445.06 2490.55 1442.82 2504.99 1439 2521Z" fill="#F3B9AE"/>
<path d="M1486 2465V2466H1489L1486 2465Z" fill="#78A4CD"/>
<path d="M2880 2465V2466H2883L2880 2465Z" fill="#78A4CD"/>
<path d="M2840 2521C2861 2506.64 2881.75 2488.88 2908 2485C2904.39 2464.97 2882.01 2461.81 2867 2470.93C2850.1 2481.19 2840.83 2501.72 2840 2521Z" fill="#F3B9AE"/>
<path d="M1314 2468V2469H1317L1314 2468Z" fill="#78A4CD"/>
<path d="M2713 2468V2469H2716L2713 2468Z" fill="#78A4CD"/>
<path d="M1293 2488L1332 2507.89L1360 2531C1360 2510.49 1352.07 2490.58 1336 2477.33C1319.82 2463.98 1299.93 2467.65 1293 2488Z" fill="#F3B9AE"/>
<path d="M2694 2488L2731 2506.75L2761 2531C2760.94 2511.02 2752.35 2488.92 2736 2476.76C2720.51 2465.24 2699.06 2466.69 2694 2488Z" fill="#F3B9AE"/>
<path d="M2451 2473C2460.95 2496.93 2474.12 2520.57 2480 2546H2607C2609.1 2536.93 2613.49 2526.8 2621 2521V2520L2584 2497.42L2558 2480L2591 2480.7L2610 2490.54L2623 2486.06L2644 2480L2639 2472C2620 2476.52 2596.53 2473 2577 2473H2451Z" fill="#97A595"/>
<path d="M967 2473C981.448 2493.51 1005.08 2512 1024 2528.42C1030.08 2533.7 1037.79 2544.28 1046 2545.77C1057.91 2547.94 1071.89 2546 1084 2546H1162C1172.55 2546 1196.56 2541.61 1205 2548H1206C1207.64 2536.87 1213.85 2529 1220 2520C1199.2 2510.16 1174.53 2494.9 1157 2480L1190 2480.51L1210 2490.94L1243 2480C1238.62 2471.65 1231.29 2473 1223 2473H1175H967Z" fill="#97A595"/>
<path d="M1544 2480V2481L1578 2490.4L1598 2480.42L1631 2480V2481C1613.36 2489.34 1591.7 2502.18 1577 2515C1587.88 2523.29 1596.78 2536.05 1598 2550H1599V2546H1716C1726.55 2546 1750.56 2541.61 1759 2548H1760C1766.06 2521.84 1780.75 2497.61 1791 2473H1616C1593.66 2473 1562.47 2467.06 1544 2480Z" fill="#97A595"/>
<path d="M2947 2481L2979 2490.51L2998 2480.65L3031 2480C3017.4 2494.04 2993.29 2505.83 2976 2515V2516C2988.03 2518.5 2996.35 2535.86 2998 2547C3008.42 2544.52 3020.33 2546 3031 2546H3094H3293H3369C3375.81 2546 3391.85 2548.97 3397.49 2544.97C3401.55 2542.09 3402.68 2531.59 3404 2527C3409.1 2509.23 3413.48 2491.15 3417 2473H3060H2976C2965.7 2473 2952.2 2469.89 2947 2481Z" fill="#97A595"/>
<path d="M1157 2480L1160 2483C1160 2479.64 1165.21 2481 1168 2481C1176.05 2481 1185.27 2479.76 1193 2482C1185.58 2476.38 1166.21 2480 1157 2480ZM1242 2480V2481H1248L1242 2480Z" fill="#9EB9D7"/>
<path d="M1210 2492V2493L1344 2577.32L1379 2599.32L1394 2607.3L1410 2598.34L1445 2576.42L1578 2493V2491C1564.26 2486.32 1551.88 2480.34 1537 2480.05C1494.24 2479.23 1450.6 2505.67 1423.73 2537C1411.12 2551.7 1395.93 2570.69 1395 2591C1389.82 2578.97 1387.06 2567.17 1379.64 2556C1346.23 2505.65 1270.02 2457.1 1210 2492Z" fill="#F0F6FC"/>
<path d="M1256 2480V2481H1260L1256 2480Z" fill="#9EB9D7"/>
<path d="M1529 2480V2481H1532L1529 2480ZM1541 2480V2481H1544L1541 2480ZM1596 2480V2481H1631L1596 2480ZM2558 2482L2592 2481C2586.33 2478.62 2562.07 2477.34 2558 2482ZM2643 2480V2481H2648L2643 2480Z" fill="#9EB9D7"/>
<path d="M2610 2492V2493L2742 2575.68L2778 2598.32L2794 2607.22L2809 2599.34L2842 2578.68L2932 2522.05L2979 2492C2956.79 2479.04 2934.34 2479.06 2910 2484.34C2857.52 2495.72 2809.62 2538.08 2795 2590C2778.1 2540.49 2739.22 2500.81 2688 2486.58C2676.3 2483.32 2663.29 2479.4 2651 2480.09C2635.98 2480.94 2623.65 2486.32 2610 2492Z" fill="#F0F6FC"/>
<path d="M2657 2480V2481H2660L2657 2480Z" fill="#9EB9D7"/>
<path d="M2660 2480V2481H2663L2660 2480ZM2927 2480V2481H2930L2927 2480Z" fill="#78A4CD"/>
<path d="M2930 2480V2481H2933L2930 2480ZM2942 2480V2481H2945L2942 2480Z" fill="#9EB9D7"/>
<path d="M2997 2480V2481L3031 2482C3026.13 2476.43 3004.36 2480 2997 2480Z" fill="#9EB9D7"/>
<path d="M1159 2481V2482L1298 2569.42L1376 2618V2620L1349 2636.19L1285 2676V2677L1318 2676.58L1351 2656.67L1381 2637.68L1394 2630.93L1407 2638L1436 2656.31L1469 2676.49L1502 2677V2676C1472.65 2656.22 1437.97 2640.93 1411 2618C1432.29 2609.94 1452.69 2592.52 1472 2580.42C1524.12 2547.79 1575.24 2511.82 1629 2482C1603.47 2471.29 1577.99 2492.08 1558 2504.68C1518.68 2529.46 1479.37 2554.26 1440 2578.95C1429.68 2585.42 1419.21 2591.71 1409 2598.34C1405 2600.94 1398.91 2606.57 1394 2606.79C1388.7 2607.03 1381.35 2600.13 1377 2597.42C1362.63 2588.48 1348.37 2579.37 1334 2570.42C1300.91 2549.81 1268.12 2528.76 1235 2508.19C1221.66 2499.91 1206.95 2486.57 1192 2481.7C1182.5 2478.6 1168.96 2481 1159 2481Z" fill="#F3B9AE"/>
<path d="M1236 2481V2482H1239L1236 2481Z" fill="#9EB9D7"/>
<path d="M2559 2481V2482L2714 2579.05L2777 2618V2620L2745 2639.05L2686 2676V2677L2719 2676.49L2748 2659L2779 2639.34L2794 2631.07L2806 2636.95L2833 2653.95L2869 2676.3L2903 2677V2676L2841 2637.32L2812 2620V2618L2877 2577.69L2984 2510.57L3030 2482C3025.53 2480.12 3019.81 2481 3015 2481C3009.09 2481 3001.66 2479.82 2996 2481.7C2982.35 2486.25 2968.07 2498.5 2956 2506.34C2918.04 2531 2879.3 2554.54 2841 2578.68C2830.36 2585.39 2819.58 2591.89 2809 2598.69C2805.09 2601.21 2799.76 2606.18 2795 2606.66C2789.43 2607.22 2781.51 2599.88 2777 2597.05C2762.33 2587.85 2747.7 2578.58 2733 2569.42C2701.59 2549.86 2670.12 2530.32 2639 2510.31C2625.17 2501.41 2607.87 2485.85 2592 2481.5C2582.19 2478.81 2569.16 2481 2559 2481Z" fill="#F3B9AE"/>
<path d="M2950 2481V2482H2953L2950 2481Z" fill="#9EB9D7"/>
<path d="M3414 2484V2487H3415L3414 2484Z" fill="#9EB9D7"/>
<path d="M2609 2491V2492H2612L2609 2491Z" fill="#9EB9D7"/>
<path d="M3412 2493V2496H3413L3412 2493Z" fill="#9EB9D7"/>
<path d="M3411 2497V2500H3412L3411 2497Z" fill="#9EB9D7"/>
<path d="M1412 2618C1421.44 2629.1 1439.62 2636.72 1452 2644.42C1456.59 2647.28 1462.5 2652.71 1468 2653.28C1478.25 2654.35 1493.3 2647.49 1503 2644.33C1535.68 2633.68 1571.89 2619.93 1590.55 2589C1601.17 2571.4 1602.13 2549.2 1592.1 2531C1589.41 2526.12 1583.95 2517.13 1578 2516.02C1573.67 2515.21 1568.42 2520.07 1565 2522.19C1554.62 2528.62 1544.33 2535.17 1534 2541.68C1508.36 2557.84 1482.6 2573.82 1457 2590.05C1442.36 2599.34 1427.66 2610.59 1412 2618Z" fill="#975B3B"/>
<path d="M2813 2618V2620C2831.08 2628.55 2847.8 2647.48 2867 2652.83C2874.86 2655.03 2888.42 2649.07 2896 2646.66C2920.77 2638.76 2945.73 2630.59 2967 2615.08C2991.27 2597.37 3006.96 2568.84 2996.3 2539C2993.63 2531.51 2987.39 2518.64 2979 2516.21C2974.68 2514.97 2969.4 2519.82 2966 2521.95C2955.99 2528.23 2946.04 2534.59 2936 2540.81C2895.01 2566.21 2855.16 2594.62 2813 2618Z" fill="#975B3B"/>
<path d="M1439 2516V2519H1440L1439 2516Z" fill="#78A4CD"/>
<path d="M1375 2620V2618C1336.09 2594.1 1297.56 2569.51 1259 2545.05C1249.38 2538.95 1239.62 2533.05 1230 2526.95C1227.09 2525.1 1222.79 2520.95 1219.04 2522.25C1212.26 2524.6 1208.54 2536.88 1206.72 2543C1198.6 2570.41 1212.91 2595.54 1234 2612.55C1253.15 2628 1277.58 2637.57 1301 2644.42C1307.81 2646.42 1317.84 2651.57 1325 2650.18C1330.89 2649.03 1337.04 2643.56 1342 2640.34C1352.76 2633.35 1363.67 2626.03 1375 2620Z" fill="#975B3B"/>
<path d="M2776 2618C2751.91 2605.17 2729.1 2588.88 2706 2574.32L2643 2534.68C2637.96 2531.51 2626.22 2520.77 2620.09 2521.88C2615.17 2522.78 2611.61 2531.96 2609.87 2536C2602.54 2553.08 2603.66 2571.85 2612.87 2588C2629.55 2617.21 2663.54 2631.84 2694 2642C2702.52 2644.84 2715.95 2651.55 2725 2650.4C2730.18 2649.74 2735.67 2644.77 2740 2642.05C2751.19 2635.03 2767.57 2628.18 2776 2618Z" fill="#975B3B"/>
<path d="M1360 2526V2532H1361L1360 2526Z" fill="#78A4CD"/>
<path d="M3398 2545L3358 2546H3274H2999C3005.97 2601.16 2953.03 2628.34 2908 2643.33C2895.44 2647.52 2881.22 2652.92 2868 2654V2655L2903 2676V2677C2893.67 2677 2878.77 2679.92 2870 2677C2860.5 2673.83 2853.26 2663.86 2844 2660C2840.71 2658.63 2834.89 2661.28 2832 2662C2820.92 2664.77 2799.96 2666.99 2788 2664C2778.93 2661.73 2768.99 2661.25 2760 2659C2756.21 2658.05 2751.18 2659.27 2752 2656L2718 2676.49L2686 2677V2676L2726 2652V2651C2714.56 2650.07 2702.84 2645.28 2692 2641.67C2650.07 2627.69 2596.2 2598.03 2606 2546H2481C2486.57 2569.5 2494.92 2592.12 2499.39 2616C2507.42 2658.86 2506.7 2699.16 2499.75 2742C2492.63 2785.93 2477.94 2827.89 2443 2858V2859C2460.22 2859.35 2478.27 2866.52 2494 2873.01C2500.48 2875.68 2509.04 2881.98 2516 2882.4C2520.35 2882.66 2524.52 2878.96 2528 2876.81C2536.81 2871.35 2546.97 2862.25 2557 2859.5C2579.66 2853.29 2606.29 2864.45 2629 2858C2620.27 2868.53 2603.54 2875.41 2592 2882.68C2565.92 2899.12 2540.22 2917.51 2513 2932V2933C2525.99 2939.18 2536.82 2952.97 2544.19 2965C2564.6 2998.3 2567.93 3036.33 2556 3073C2824.66 3073 3105.11 2983.72 3277.6 2768C3317.19 2718.49 3350.28 2663.74 3376.31 2606C3382.63 2591.97 3388.15 2577.5 3393.31 2563C3395.13 2557.88 3399.13 2550.38 3398 2545ZM1044 2546C1054.93 2561.2 1074.54 2573.57 1089 2585.42C1122.14 2612.59 1156.14 2638.5 1191 2663.42C1296.39 2738.76 1410.59 2802.51 1529 2854.86C1559.43 2868.32 1590.1 2881.04 1621 2893.4C1638.11 2900.24 1656.04 2908.84 1674 2913V2912L1620 2877.95L1590 2860V2859H1640L1663.09 2859.46L1692 2877.19L1704 2883.14L1732 2871.4L1780 2858C1770.16 2843.62 1758.74 2831.06 1751.31 2815C1724.36 2756.76 1724.07 2691.9 1736.45 2630C1740.02 2612.16 1744.47 2594.43 1749.72 2577C1752.72 2567.04 1757.97 2556.32 1759 2546H1599C1599.11 2559.01 1600.3 2569.63 1594.69 2582C1578.78 2617.04 1539.01 2632.67 1505 2644C1493 2648 1479.65 2652.97 1467 2654V2655L1502 2676V2677C1492.29 2677 1478.13 2679.61 1469 2676.16C1459.61 2672.6 1451.84 2662.3 1442 2660.17C1432.28 2658.06 1418.23 2663.95 1408 2664C1388.76 2664.09 1369.81 2657.91 1351 2657.94C1340.1 2657.96 1328.9 2671.91 1319 2675.93C1309.67 2679.71 1294.99 2677 1285 2677V2676L1325 2652V2651C1311.3 2649.88 1296.8 2643.82 1284 2639.05C1251.53 2626.94 1213.25 2606.88 1204.89 2570C1203.05 2561.91 1204.36 2554.1 1205 2546H1044Z" fill="#E4D4B4"/>
<path d="M2605 2548V2551H2606L2605 2548Z" fill="#78A4CD"/>
<path d="M2999 2549V2553H3000L2999 2549ZM1204 2550V2554H1205L1204 2550Z" fill="#78A4CD"/>
<path d="M1599 2553V2566H1600L1599 2553Z" fill="#78A4CD"/>
<path d="M2604 2554V2564H2605L2604 2554Z" fill="#78A4CD"/>
<path d="M1204 2564V2569H1205L1204 2564Z" fill="#78A4CD"/>
<path d="M2999 2566V2570H3000L2999 2566Z" fill="#78A4CD"/>
<path d="M2605 2567V2571H2606L2605 2567ZM1598 2568V2572H1599L1598 2568Z" fill="#78A4CD"/>
<path d="M2606 2572V2575H2607L2606 2572Z" fill="#78A4CD"/>
<path d="M1206 2574V2577H1207L1206 2574Z" fill="#78A4CD"/>
<path d="M2795 2586L2794 2588H2796L2795 2586Z" fill="#78A4CD"/>
<path d="M2794 2588V2590L2796 2588H2794Z" fill="#9EB9D7"/>
<path d="M2498 2611V2614H2499L2498 2611Z" fill="#78A4CD"/>
<path d="M2499 2616V2619H2500L2499 2616Z" fill="#78A4CD"/>
<path d="M2500 2622V2625H2501L2500 2622Z" fill="#78A4CD"/>
<path d="M2501 2628V2631H2502L2501 2628Z" fill="#78A4CD"/>
<path d="M1736 2629V2632H1737L1736 2629Z" fill="#78A4CD"/>
<path d="M1352 2657C1380.59 2666.68 1410.83 2662.3 1440 2660L1407 2638.19L1394 2631.2L1382 2637.31L1352 2657Z" fill="#975B3B"/>
<path d="M2753 2658L2788 2662.96L2841 2660C2832.11 2651.49 2819.42 2645.58 2809 2639.05C2805.05 2636.57 2799.74 2631.75 2795 2631.24C2791.16 2630.82 2787.06 2634.51 2784 2636.42C2775.03 2642.01 2758.13 2648.63 2753 2658Z" fill="#975B3B"/>
<path d="M2502 2635V2638H2503L2502 2635Z" fill="#78A4CD"/>
<path d="M2682 2638V2639H2685L2682 2638Z" fill="#78A4CD"/>
<path d="M1287 2640V2641H1290L1287 2640Z" fill="#78A4CD"/>
<path d="M1734 2640V2643H1735L1734 2640Z" fill="#78A4CD"/>
<path d="M2503 2642V2646H2504L2503 2642Z" fill="#78A4CD"/>
<path d="M1299 2644V2645H1302L1299 2644Z" fill="#78A4CD"/>
<path d="M2902 2644V2645H2905L2902 2644Z" fill="#78A4CD"/>
<path d="M2899 2645V2646H2902L2899 2645Z" fill="#78A4CD"/>
<path d="M1495 2646V2647H1498L1495 2646ZM1733 2646V2649H1734L1733 2646Z" fill="#78A4CD"/>
<path d="M1309 2647V2648H1312L1309 2647Z" fill="#78A4CD"/>
<path d="M1488 2648V2649H1491L1488 2648Z" fill="#78A4CD"/>
<path d="M1316 2649V2650H1319L1316 2649Z" fill="#78A4CD"/>
<path d="M2717 2649V2650H2720L2717 2649Z" fill="#78A4CD"/>
<path d="M2885 2649V2650H2888L2885 2649ZM1320 2650V2651H1323L1320 2650Z" fill="#78A4CD"/>
<path d="M2881 2650V2651H2884L2881 2650Z" fill="#78A4CD"/>
<path d="M1477 2651V2652H1480L1477 2651ZM2504 2651V2656H2505L2504 2651Z" fill="#78A4CD"/>
<path d="M1473 2652V2653H1476L1473 2652ZM2874 2652V2653H2877L2874 2652Z" fill="#78A4CD"/>
<path d="M1469 2653V2654H1472L1469 2653ZM1732 2653V2656H1733L1732 2653Z" fill="#78A4CD"/>
<path d="M2869 2653V2654H2873L2869 2653Z" fill="#78A4CD"/>
<path d="M1350 2658H1353L1352 2656L1350 2658ZM2752 2656L2751 2658H2753L2752 2656Z" fill="#78A4CD"/>
<path d="M1354 2658V2659H1358L1354 2658ZM2755 2658V2659H2758L2755 2658Z" fill="#78A4CD"/>
<path d="M1360 2659V2660H1363L1360 2659ZM2760 2659V2660H2764L2760 2659ZM1364 2660V2661H1369L1364 2660ZM1435 2660V2661H1438L1435 2660ZM1731 2660V2664H1732L1731 2660ZM2766 2660V2661H2769L2766 2660ZM2835 2660V2661H2839L2835 2660ZM1371 2661V2662H1375L1371 2661ZM1428 2661V2662H1432L1428 2661ZM2772 2661V2662H2776L2772 2661ZM2829 2661V2662H2833L2829 2661ZM1378 2662V2663H1383L1378 2662ZM1421 2662V2663H1425L1421 2662ZM2779 2662V2663H2784L2779 2662ZM2821 2662V2663H2826L2821 2662ZM1388 2663V2664H1416L1388 2663ZM2505 2663V2673H2506L2505 2663ZM2787 2663V2664H2817L2787 2663ZM1730 2668V2673H1731L1730 2668ZM1729 2679V2686H1730L1729 2679ZM2505 2693V2702H2506L2505 2693ZM1728 2696V2717H1729L1728 2696ZM2504 2709V2713H2505L2504 2709ZM2503 2717V2721H2504L2503 2717ZM2502 2724V2727H2503L2502 2724ZM1729 2727V2733H1730L1729 2727ZM2501 2730V2733H2502L2501 2730ZM2500 2735V2738H2501L2500 2735ZM1730 2738V2742H1731L1730 2738ZM2499 2741V2744H2500L2499 2741ZM1731 2746V2749H1732L1731 2746ZM2498 2749V2753H2499L2498 2749ZM2497 2756V2759H2498L2497 2756ZM1733 2758V2761H1734L1733 2758ZM2306 2824V2825H2311L2306 2824Z" fill="#78A4CD"/>
<path d="M2210 2948C2227.98 2936.11 2243.54 2920.92 2262 2909.43C2293.02 2890.11 2326.43 2878.05 2361 2867C2358.47 2859.57 2354.85 2852.27 2350.1 2846C2326.44 2814.75 2286.04 2823.14 2259 2844.81C2226.63 2870.74 2214.98 2908.58 2210 2948Z" fill="#F3B9AE"/>
<path d="M1929 2832V2833H1933L1929 2832Z" fill="#78A4CD"/>
<path d="M1887 2876C1900.55 2876.58 1917.04 2886.78 1929 2892.75C1954.41 2905.46 1978.11 2920.22 2000 2938.44C2012.29 2948.66 2023.01 2961.85 2036 2971C2036 2927.23 2018.97 2883.61 1986 2854.17C1964.4 2834.89 1927.85 2821.69 1904.17 2845.17C1895.61 2853.66 1891.27 2864.99 1887 2876Z" fill="#F3B9AE"/>
<path d="M1938 2832V2833H1943L1938 2832Z" fill="#78A4CD"/>
<path d="M1789 2857V2858H1806L1789 2857Z" fill="#78A4CD"/>
<path d="M2416 2857V2858H2433L2416 2857Z" fill="#78A4CD"/>
<path d="M1590 2859V2860L1716 2938.95L1938 3078.42L2027 3134.42L2072 3162V3164C2051.06 3171.93 2030.98 3189.04 2012 3200.95C1964.88 3230.5 1918.63 3263.03 1870 3290V3291H1920L1944 3290.3L1971 3273.68L2027 3238.58L2087 3200.81L2109.58 3187.52L2132 3200.42L2191 3237.58L2249 3274.05L2276 3290.35L2300 3291H2349V3290L2210 3202.42L2147 3162C2159.57 3157.99 2171.8 3147.4 2183 3140.42C2209.75 3123.76 2236.3 3106.79 2263 3090.05C2345.03 3038.6 2427.8 2988.08 2509 2935.34C2537.35 2916.93 2566.3 2899.3 2595 2881.42C2604.64 2875.42 2623.5 2868.02 2629 2858L2578 2859L2556 2859.5L2527 2876.81L2462 2917.95L2254 3048.68L2149 3114.69L2121 3132.34L2109.42 3138.46L2099 3132.68L2074 3116.95L1983 3059.68L1757 2917.58L1692 2876.58L1663 2859.15L1640 2859H1590Z" fill="#F3B9AE"/>
<path d="M1704 2885C1803.62 2946.19 1902.1 3009.34 2001 3071.68L2080 3121.32C2087.11 3125.8 2101.46 3139.13 2110 3138.79C2119.21 3138.43 2133.22 3125.27 2141 3120.42C2168.08 3103.56 2194.92 3086.29 2222 3069.42C2320.58 3008.03 2418.04 2944.79 2517 2884C2509.08 2877.44 2497.5 2873.93 2488 2870.2C2447.42 2854.27 2407.71 2856.52 2366 2866.11C2250.07 2892.78 2139.89 2985.71 2111 3103C2106.22 3087.89 2104.1 3072.58 2097.22 3058C2050.91 2959.89 1955.44 2890.98 1852 2865.13C1813.2 2855.43 1774.77 2855.21 1737 2869.05C1726.88 2872.76 1711.36 2876.94 1704 2885Z" fill="#F0F6FC"/>
<path d="M1813 2858V2859H1816L1813 2858Z" fill="#9EB9D7"/>
<path d="M2406 2858V2859H2409L2406 2858Z" fill="#9EB9D7"/>
<path d="M2149 3162V3164C2177.51 3181.51 2205.6 3199.73 2234 3217.42C2244.59 3224.02 2258.81 3237.28 2271 3239.88C2276.39 3241.03 2283.77 3237.68 2289 3236.37C2303.75 3232.69 2318.41 3228.69 2333 3224.42C2394.01 3206.58 2457.47 3184.29 2506 3141.71C2553.24 3100.28 2577.74 3040.1 2551.85 2980C2545.73 2965.8 2531.27 2939.04 2515 2934.36C2508.32 2932.45 2495.49 2943.99 2490 2947.42C2467.29 2961.64 2444.53 2975.82 2422 2990.31C2331.61 3048.42 2238.61 3102.7 2149 3162Z" fill="#975B3B"/>
<path d="M2210 2941V2944H2211L2210 2941Z" fill="#78A4CD"/>
<path d="M2071 3164V3162C2035.88 3143.3 2002.61 3119.37 1969 3098.05C1917.15 3065.17 1864.44 3033.53 1813 3000C1791.58 2986.04 1769.72 2972.68 1748 2959.19C1743.24 2956.24 1730.97 2945.03 1725.17 2947.24C1720.91 2948.86 1717.23 2955.42 1714.72 2959C1706.71 2970.44 1700.45 2983.49 1696.88 2997C1680.58 3058.74 1711.93 3114.61 1761 3151.63C1804.03 3184.09 1854.1 3203.1 1905 3219.34C1917.24 3223.25 1929.59 3226.79 1942 3230.15C1947.09 3231.53 1953.68 3234.67 1959 3233.31C1970.52 3230.36 1982.96 3219.01 1993 3212.68C2018.75 3196.45 2044.13 3178.3 2071 3164Z" fill="#975B3B"/>
<path d="M2036 2965V2972H2037L2036 2965Z" fill="#78A4CD"/>
<path d="M2560 3005V3008H2561L2560 3005Z" fill="#78A4CD"/>
<path d="M2561 3010V3013H2562L2561 3010Z" fill="#78A4CD"/>
<path d="M2562 3015V3021H2563L2562 3015Z" fill="#78A4CD"/>
<path d="M1691 3025V3040H1692L1691 3025Z" fill="#9EB9D7"/>
<path d="M2563 3030V3034H2564L2563 3030Z" fill="#78A4CD"/>
<path d="M2562 3043V3049H2563L2562 3043Z" fill="#78A4CD"/>
<path d="M2561 3050V3055H2562L2561 3050Z" fill="#78A4CD"/>
<path d="M2560 3056V3059H2561L2560 3056Z" fill="#78A4CD"/>
<path d="M2559 3060V3063H2560L2559 3060Z" fill="#78A4CD"/>
<path d="M2110 3099V3101H2112V3099H2110Z" fill="#78A4CD"/>
<path d="M2110 3101V3103L2112 3101H2110Z" fill="#9EB9D7"/>
<path d="M2014 3247V3248C2042.79 3250.29 2071 3258.92 2100 3260.91C2138.98 3263.58 2175.6 3256.06 2214 3253C2206.22 3245.55 2195.14 3240.27 2186 3234.58C2169.3 3224.17 2152.72 3213.57 2136 3203.19C2129.75 3199.31 2116.56 3186.99 2109 3187.98C2099.68 3189.2 2086.85 3200.88 2079 3206C2057.55 3219.98 2035.23 3232.69 2014 3247Z" fill="#975B3B"/>
<path d="M2184 3257V3258H2187L2184 3257Z" fill="#78A4CD"/>
<path d="M2073 3258V3259H2076L2073 3258Z" fill="#9EB9D7"/>
<path d="M2179 3258V3259H2182L2179 3258ZM2081 3259V3260H2084L2081 3259Z" fill="#9EB9D7"/>
<path d="M2171 3259V3260H2174L2171 3259ZM2090 3260V3261H2093L2090 3260Z" fill="#9EB9D7"/>
<path d="M2093 3260V3261H2097L2093 3260ZM2158 3260V3261H2162L2158 3260Z" fill="#78A4CD"/>
<path d="M2162 3260V3261H2165L2162 3260ZM2104 3261V3262H2112L2104 3261Z" fill="#9EB9D7"/>
<path d="M2112 3261V3262H2116L2112 3261Z" fill="#78A4CD"/>
<path d="M2116 3261V3262H2123L2116 3261ZM2131 3261V3262H2139L2131 3261Z" fill="#9EB9D7"/>
<path d="M2139 3261V3262H2143L2139 3261Z" fill="#78A4CD"/>
<path d="M2143 3261V3262H2151L2143 3261Z" fill="#9EB9D7"/>
</g>
<defs>
<clipPath id="clip0_1_2">
<rect width="4000" height="4000" fill="white"/>
</clipPath>
</defs>
</svg>
