<svg width="465" height="156" viewBox="0 0 465 156" fill="none" xmlns="http://www.w3.org/2000/svg">
<g clip-path="url(#clip0_12_2)">
<path d="M260 19.5999H260.8C266.932 28.9368 270.531 35.8688 271.6 40.3997L271.201 40.7997H270.001C267.601 38.6687 266.401 37.3368 266.401 36.7998H266.001V37.1998C272.132 71.0685 275.201 90.2624 275.201 94.7994C275.201 102.799 271.732 108.262 264.801 111.199L254.402 115.199C244.801 119.199 237.333 125.599 232.002 134.398C226.402 143.458 220.662 147.998 214.802 147.998H213.602C207.733 147.998 203.733 144.261 201.602 136.798V128.798C201.602 126.398 204.133 120.261 209.202 110.398H208.802C198.665 118.929 188.265 129.061 177.602 140.798C168.002 150.661 160.933 155.599 156.402 155.599H153.602C146.402 155.599 142.134 150.13 140.803 139.199V137.199C140.803 131.061 143.066 123.999 147.602 115.999L148.002 115.199V113.599C144.533 114.13 137.865 116.798 128.003 121.599C121.865 126.13 116.934 131.199 113.203 136.798C107.865 144.798 102.265 148.798 96.4028 148.798H95.2028C88.8029 148.798 84.5339 145.73 82.4029 139.599V130.398C82.4029 126.929 87.0659 117.46 96.4028 101.999C92.6658 103.062 90.1338 103.6 88.8028 103.6C82.9339 103.6 78.6659 100.531 76.0029 94.3994C75.2029 90.9304 73.7339 89.2004 71.603 89.2004C69.734 89.4624 66.803 91.7314 62.803 96.0004C60.934 98.9314 60.003 100.8 60.003 101.601C63.465 106.664 66.934 109.201 70.403 109.201C77.6029 110.801 81.2029 113.201 81.2029 116.4V116.8C81.2029 120.263 80.6649 122 79.6029 122L67.203 119.2H59.603C50.0031 122.399 43.0651 126.93 38.8032 132.8C38.0032 133.601 33.6032 138.4 25.6033 147.2C22.1343 149.862 18.2663 151.2 14.0033 151.2H12.8033C9.33436 151.2 5.73538 149.331 2.00341 145.6C0.666414 143.2 0.00341797 140.531 0.00341797 137.6V135.2C0.00341797 130.399 3.0664 122.531 9.20336 111.6V111.2C5.20338 107.2 3.2034 102.93 3.2034 98.3994V94.0004C3.2034 82.5315 8.53436 68.8006 19.2033 52.8007L20.8033 51.6007L21.2033 52.4007C21.2033 53.2007 18.1343 59.4696 12.0033 71.2005C8.53436 80.0005 6.80337 86.2634 6.80337 90.0004C6.80337 97.4624 8.80336 101.731 12.8033 102.8H13.2033C15.8653 102.8 18.1343 99.6013 20.0033 93.2004L20.4033 92.8004H21.2033V94.4004C21.2033 98.9314 19.6033 103.863 16.4033 109.201C11.8653 111.601 9.60336 113.863 9.60336 116.001C4.53439 124.531 2.00341 130.531 2.00341 134.001V138.001C3.3344 143.602 5.86538 146.4 9.60336 146.4C14.4033 146.4 21.2033 140.664 30.0032 129.201C36.6662 121.732 43.0661 116.532 49.2031 113.601L57.2031 109.201L56.8031 104.801C56.8031 94.9324 60.003 88.0014 66.403 84.0015C69.334 81.0635 72.403 79.6025 75.6029 79.6025C77.2029 79.6025 79.7339 83.0645 83.2029 90.0014C85.6029 92.9324 87.8649 94.4004 90.0028 94.4004C92.9338 94.4004 101.865 91.7324 116.803 86.4004V85.2014C112.534 83.8635 105.865 81.6015 96.8028 78.4005L95.6028 78.0015L94.0028 79.6025L78.4029 78.4015C79.2029 72.5335 81.6029 69.6025 85.6029 69.6025L89.2028 69.2026H94.8028C99.3338 69.2026 108.666 72.1335 122.803 78.0025C132.403 80.4015 141.334 82.1345 149.602 83.2025L150.002 84.0015C148.933 86.6644 147.464 89.0644 145.602 91.2014L138.003 90.0014C127.865 90.0014 116.266 93.2014 103.203 99.6023C100.263 102.001 96.5338 106.801 92.0028 114.001C87.2029 122.532 84.8029 129.332 84.8029 134.4C84.8029 139.732 86.5339 142.8 90.0028 143.601H94.0028C96.9338 143.601 104.534 136 116.803 120.8C126.666 112.531 134.934 107.862 141.603 106.8C150.133 103.601 154.402 101.331 154.402 100V96.0004C154.402 93.0624 152.533 82.6635 148.802 64.8006C145.864 46.6697 143.734 34.9378 142.402 29.6008C143.202 25.3378 144.002 23.2008 144.802 23.2008H145.202C152.664 35.7388 156.402 42.8007 156.402 44.4007L155.602 45.2007L150.002 40.4007L157.602 86.0004L158.402 94.0004C158.402 101.462 156.133 107.862 151.602 113.2C147.064 121.731 144.802 128.663 144.802 134V134.8C144.802 140.4 146.665 144.132 150.402 146H152.802C160.533 146 173.734 135.601 192.402 114.8C199.065 108.931 206.933 102.8 216.002 96.4004L217.202 95.6014V95.2014C210.533 92.8014 204.802 89.3324 200.002 84.8015C199.202 83.7335 198.533 81.2015 198.002 77.2015C198.002 72.9325 200.933 70.0015 206.802 68.4016H212.002C221.864 68.4016 238.934 70.5395 263.202 74.8015C264.265 74.8015 264.802 75.2015 264.802 76.0015C263.465 81.3325 261.333 84.0015 258.403 84.0015C252.802 86.6644 249.734 88.1334 249.203 88.4004C248.134 91.0634 247.602 93.7324 247.602 96.4004V96.8004L249.203 98.4004C250.266 98.4004 251.203 97.2014 252.003 94.8004C252.003 95.3314 252.403 95.6014 253.203 95.6014V96.0004C252.403 100.531 251.734 102.8 251.203 102.8H250.003C247.065 102 245.603 100.8 245.603 99.2004V94.3994L246.803 89.6004V89.2004C235.334 93.4624 229.603 95.7314 229.603 96.0004V96.8004C232.266 99.2004 233.603 102 233.603 105.2V108L232.404 108.8H231.604C227.604 108.8 224.535 106.531 222.404 102H221.604C216.535 102 210.935 110.263 204.804 126.8C204.267 127.601 204.004 128.663 204.004 130V134C204.804 139.063 207.067 141.601 210.804 141.601C216.404 141.601 221.604 137.732 226.404 130C234.666 117.462 244.666 109.331 256.404 105.601C266.266 102.4 271.204 99.6014 271.204 97.2014C271.204 95.8634 268.535 80.9315 263.204 52.4017C261.866 41.4707 260.266 32.6708 258.404 26.0018C258.404 24.6708 258.934 22.5399 260.004 19.6019L260 19.5999ZM31.6012 107.599C34.8012 109.199 36.4012 110.929 36.4012 112.798C36.4012 114.13 34.6642 114.798 31.2012 114.798C31.2012 119.061 26.5322 124.929 17.2013 132.398C14.2633 134.798 11.8633 136.261 10.0014 136.798L9.60136 136.398C22.4013 124.128 28.8012 117.328 28.8012 115.998V109.998L31.6012 107.599ZM134.801 25.1998V25.9998C134.801 27.8688 130.264 29.9998 121.201 32.3998C80.9319 45.9997 51.0641 58.2686 31.6012 69.1995L29.6012 70.3995C29.0632 70.3995 28.8012 69.9995 28.8012 69.1995C28.8012 67.0686 39.0642 61.4686 59.601 52.3997C78.0009 44.3997 101.201 35.7378 129.201 26.3998L134.801 25.1998ZM47.6011 75.9995C49.7321 76.7995 50.8011 77.8615 50.8011 79.1995V80.3985L50.0011 81.1995H49.2011C48.1321 80.1315 47.6011 79.1995 47.6011 78.3985C45.4631 78.3985 44.1321 83.7305 43.6011 94.3984V95.5994L42.8011 95.9994H42.4011C41.8632 95.9994 41.3322 94.3984 40.8012 91.1994C39.2012 88.7994 37.8632 87.1994 36.8012 86.3984H32.0012C30.9322 85.5994 30.4012 84.3985 30.4012 82.7985C30.6642 81.7305 31.3322 81.1985 32.4012 81.1985C36.4012 81.1985 39.4642 84.1305 41.6011 89.9984H42.4011V84.7985C42.4011 80.7995 44.1321 77.8615 47.6011 75.9995ZM54.8011 29.9998C57.2011 31.3368 58.401 32.9378 58.401 34.7998L57.2011 35.5998H56.8011L54.4011 33.5998C52.2641 33.5998 50.4011 39.4687 48.8011 51.1997L48.4011 51.5997H48.0011C47.2011 51.5997 46.4011 49.5997 45.6011 45.5997L42.4011 40.7997L39.6012 41.9997H38.8012C36.1332 41.1997 34.8012 39.7377 34.8012 37.5998V35.9998C34.8012 35.4688 35.7332 35.1998 37.6012 35.1998H38.0012C40.9322 35.1998 44.2641 38.5368 48.0011 45.1997H48.4011V44.3997C49.4631 34.7998 51.6011 29.9998 54.8011 29.9998ZM64.001 132.799C69.064 134.662 71.601 136.399 71.601 137.999C71.601 139.062 70.401 141.6 68.001 145.6C67.201 145.6 65.063 144.262 61.601 141.6H60.001L58.401 146L56.8011 146.8C51.4641 144.4 48.8011 142.663 48.8011 141.601C48.8011 140.263 50.0011 137.601 52.4011 133.601L60.001 138.001L64.001 132.801V132.799ZM67.601 57.9996C67.863 57.9996 68.001 58.7996 68.001 60.3996C71.201 61.9996 72.801 63.5996 72.801 65.1996V66.7996C71.464 70.2685 69.601 71.9995 67.201 71.9995H65.601C64.001 71.9995 63.201 71.0685 63.201 69.1995V67.9996C65.332 61.3366 66.801 57.9996 67.601 57.9996ZM64.801 68.3996L65.601 69.1995C69.063 68.6686 70.801 67.8676 70.801 66.7996V65.9996C69.464 64.3996 68.133 63.5996 66.801 63.5996C66.001 63.5996 65.332 65.1996 64.801 68.3996ZM85.6009 19.5999C90.6638 19.5999 93.2008 19.9999 93.2008 20.7999V21.9999C93.2008 24.9378 91.2008 28.2688 87.2009 31.9998C82.6629 34.3998 79.3319 35.5998 77.2009 35.5998L76.4009 34.7998C78.2639 33.1998 81.2009 31.1998 85.2009 28.7998V27.5998H77.6009L74.8009 28.3998H73.6009L72.801 27.5998C74.6639 22.2689 77.4639 19.5999 81.2009 19.5999H85.6009ZM95.6008 43.9997L96.0008 44.3997C93.8628 49.7377 92.8008 53.3377 92.8008 55.1996C92.8008 56.2686 93.2008 57.1996 94.0008 57.9996H95.2008C95.4628 57.9996 96.0008 56.6686 96.8008 53.9996H97.6008L98.0008 54.7996V55.9996C98.0008 58.1376 96.9318 59.9996 94.8008 61.5996C91.8628 60.7996 90.4008 59.4686 90.4008 57.5996V54.7996C90.4008 50.5377 92.1318 46.9377 95.6008 43.9997ZM96.4008 118.399L97.6008 119.2V122C99.4628 122 101.063 123.2 102.401 125.601V127.201C102.401 129.863 100.532 131.732 96.8008 132.801H95.6008C94.0008 132.801 93.2008 131.463 93.2008 128.801C94.5318 123.461 95.6008 120.001 96.4008 118.401V118.399ZM96.4008 124.399L95.6008 127.2V129.2H96.4008C98.0008 129.2 99.2008 128.663 100.001 127.6V127.2C99.2008 126.4 98.0008 125.459 96.4008 124.399ZM112.001 101.999H114.001C114.801 101.999 115.201 102.53 115.201 103.6L113.201 109.999H115.201C117.601 109.999 121.063 107.33 125.601 101.999L126.401 102.799C125.601 105.999 122.664 109.199 117.601 112.399C116.001 112.93 114.532 113.2 113.201 113.2H112.001C110.932 112.93 110.401 112.262 110.401 111.2L112.001 105.6V105.2H110.401L109.601 106H108.801L108.001 105.2C108.531 103.06 109.861 101.999 112.001 101.999ZM129.201 47.1997C131.863 49.8677 133.332 52.3997 133.601 54.7996V55.9996C133.601 58.3996 132.663 59.5996 130.801 59.5996C128.932 59.3366 127.464 58.9366 126.401 58.3996C126.401 60.5376 124.664 61.7376 121.201 61.9996C119.063 61.7376 118.001 60.7996 118.001 59.1996V53.5997L115.201 55.1996V53.9996C115.732 51.5997 116.932 50.3997 118.801 50.3997L120.001 51.1997V57.9996C120.001 58.2686 120.932 58.6686 122.801 59.1996H123.201C124.001 58.6686 124.401 57.9996 124.401 57.1996V56.3996L122.801 48.3997H124.001C124.532 48.3997 125.863 50.6687 128.001 55.1996L128.801 55.9996H130.801L131.201 55.1996L128.001 48.3997L129.201 47.1997ZM124.401 132.399C129.464 133.731 132.401 139.2 133.201 148.799C132.401 152.53 131.601 154.399 130.801 154.399L130.001 153.6C130.532 151.999 130.801 150.399 130.801 148.799V147.999C130.801 144.53 128.664 140.662 124.401 136.398L123.601 134.398C123.861 133.058 124.131 132.399 124.401 132.399ZM171.6 6.39996C173.462 6.39996 174.4 7.19995 174.4 8.79994V10.3999C172.8 14.1379 170.531 15.9999 167.6 15.9999H166.4L166 15.5999H165.6L164 18.3999L162.8 17.9999L163.2 15.1999H162.8C162.263 15.1999 161.331 15.7379 160 16.7999C158.931 16.7999 158 16.2689 157.2 15.1999H156.8C156 15.1999 154.931 15.7379 153.6 16.7999H152.8V15.9999C152.8 13.8689 154.531 12.5379 158 11.9999C158.531 13.0689 159.462 13.5999 160.8 13.5999H161.2V7.59995H161.6C162.131 7.59995 163.062 9.06894 164.4 11.9999H165.2C167.86 8.26895 170 6.39996 171.6 6.39996ZM165.2 107.599L165.6 107.998V108.397C162.931 116.661 161.6 121.998 161.6 124.397C161.862 126.26 162.8 127.198 164.4 127.198C166 127.198 166.8 125.86 166.8 123.198L168 122.397L168.4 122.797V125.997C168.4 129.197 166.931 131.328 164 132.396H163.2C160.531 132.396 159.2 129.859 159.2 124.796C159.2 122.128 160.931 116.659 164.4 108.396L165.2 107.596V107.599ZM166.4 21.9999C172.263 30.2688 175.732 36.9378 176.8 41.9997L176.4 43.1997H175.2L171.2 38.7997V39.5997L176.4 74.3995C178.531 86.1314 179.6 93.9994 179.6 97.9994C178.531 107.861 177.731 112.799 177.2 112.799H176.4C175.862 112.799 175.2 108.662 174.4 100.399C171.462 74.8005 168.663 54.8006 166 40.3997C166 36.3998 165.331 32.7998 164 29.5998C164.8 24.5378 165.6 21.9999 166.4 21.9999ZM167.2 12.7999H169.2C170.531 12.7999 171.462 12.3999 172 11.5999V9.59994H170C169.2 10.1379 168.26 11.1999 167.2 12.7999ZM197.2 140.399L197.6 140.799V142.399C197.062 143.731 193.462 146.399 186.8 150.399C183.331 153.862 180.931 155.6 179.6 155.6L179.2 155.2V153.6C182.662 149.33 188.531 144.93 196.8 140.399H197.2ZM202.8 5.19997C204.663 5.19997 207.063 8.39995 210 14.7999L210.8 19.1999V22.7999H211.2C213.331 22.7999 219.731 19.8679 230.4 13.9999L232.8 13.5999H233.2L234.4 15.1999V16.3999C234.4 17.7379 231.462 21.4689 225.6 27.5998C224.531 29.7378 224 31.5998 224 33.1998V33.5998C240.8 27.7378 250.131 24.7998 252 24.7998L252.4 25.1998V25.5998C252.4 27.1998 245.599 29.9998 232 33.9998C201.6 44.6687 186.4 51.7377 186.4 55.1996V55.9996C191.732 56.5376 194.4 57.1996 194.4 57.9996C194.4 59.0686 194.131 59.7376 193.6 59.9996H192C186.663 59.4686 184 58.1376 184 55.9996V55.1996C184 49.8677 196.263 42.9367 220.8 34.3998C221.6 33.8688 222.531 31.7378 223.6 27.9998C224.931 25.5998 227.6 22.2689 231.6 17.9999L231.2 17.1999H230.4L216.8 24.7998L209.2 27.1998L203.2 27.5998H201.6C200.531 27.5998 198.4 27.1998 195.2 26.3998H194.8L192 28.3998H188.8L186 26.7998C185.462 27.0688 184.531 27.9998 183.2 29.5998L182 28.7998V27.5998C183.862 24.6688 185.2 23.1999 186 23.1999C187.063 23.1999 188.4 23.9998 190 25.5998L191.2 25.9998L192.4 23.9998L191.2 16.7999L191.6 16.3999H192L195.6 21.9999C196.931 23.3368 198.531 23.9998 200.4 23.9998H208.4L208.8 21.9999V20.3999C208.8 16.6689 206.4 12.2689 201.6 7.19995V5.59996C201.6 5.33697 202 5.19997 202.8 5.19997ZM188.8 63.9996L189.2 65.1996L187.6 74.3995V75.9995L189.6 77.9995L192 74.3995C192.263 74.3995 192.4 74.6625 192.4 75.1995C192.4 78.1315 191.6 80.2625 190 81.5995H189.2C186.531 80.2615 185.2 78.6615 185.2 76.7995C186.26 68.2686 187.46 63.9996 188.8 63.9996ZM189.6 89.9994C195.2 91.6004 198 93.3304 198 95.1994C196.4 100.262 195.331 102.799 194.8 102.799H194C192.131 102.53 189.462 100.93 186 97.9994V96.7994C187.6 92.2624 188.8 89.9994 189.6 89.9994ZM203.2 77.9995V78.7995C213.062 83.8625 219.462 87.9994 222.4 91.1994C230.663 87.4614 238.662 84.1315 246.4 81.1995V80.3985H245.6C228 78.2625 215.46 77.1995 208 77.1995C204.8 77.1995 203.2 77.4615 203.2 77.9995ZM224 46.7997H225.6C226.4 46.7997 227.062 47.9997 227.6 50.3997L226.8 51.5997L223.6 49.9997C221.731 51.5997 220.131 56.7996 218.8 65.5996V65.9996H218C217.462 65.9996 216.8 64.1376 216 60.3996C214.4 57.7376 212.8 56.3996 211.2 56.3996C208 56.3996 206.4 55.4686 206.4 53.5997V52.7997C206.663 51.7367 207.6 51.1997 209.2 51.1997C211.6 51.1997 214.4 53.8677 217.6 59.1996H218C219.33 50.9377 221.33 46.7997 224 46.7997ZM218 115.999C218.263 117.861 218.8 118.799 219.6 118.799C221.731 119.6 222.8 120.662 222.8 121.999V123.6C222.8 126.531 220.8 128.262 216.8 128.799H215.2C214.131 128.262 213.6 127.461 213.6 126.399V125.6C213.6 121.86 215.06 118.659 218 115.999ZM216.8 121.199L215.6 125.599L217.6 125.998C219.462 125.198 220.4 124.529 220.4 123.998V123.198C220.4 122.658 219.2 121.999 216.8 121.199ZM248 45.5997C249.6 45.5997 251.063 48.2687 252.4 53.5997V54.3996C252.13 56.7996 251.062 57.9996 249.2 57.9996H248L246.4 56.7996H246C246 58.3996 244.4 59.3366 241.2 59.5996C238.8 58.5366 237.599 56.5366 237.599 53.5997V52.3997C236.799 52.3997 236.4 52.1377 236.4 51.5997V50.3997L238 48.3997H238.8L240 49.9997V51.1997C240 54.9366 240.662 56.7996 242 56.7996C243.6 56.5366 244.4 55.8676 244.4 54.7996L242.799 48.3997V47.9997L243.599 46.7997C244.662 47.3367 245.862 49.7377 247.2 53.9996L249.2 54.7996L249.599 54.3996H249.999L247.599 47.5997V46.7997L247.999 45.5997H248ZM253.6 127.199C255.732 127.199 256.8 127.461 256.8 127.999V128.799C256.8 131.461 255.2 134.53 252 137.999L251.6 139.999H252.401C255.863 139.999 261.201 136.662 268.401 129.999H268.8V131.199C268.8 134.398 264 138.799 254.401 144.398L252.001 144.798C249.863 144.261 248.801 143.599 248.801 142.798V139.998C248.801 138.13 250.264 135.46 253.201 131.998V131.198H252.801L247.201 132.798V131.998C247.201 129.858 249.331 128.258 253.601 127.198L253.6 127.199ZM295.6 128.799H295.999V130.399C293.862 133.062 286.8 137.462 274.8 143.6L262.401 151.6H262.001L261.601 150.799V149.6C263.733 146.93 269.733 142.799 279.601 137.2C287.061 133.2 292.401 130.4 295.601 128.8L295.6 128.799ZM288.4 0.399997C290.531 0.399997 291.599 1.59999 291.599 3.99997C291.599 6.39996 289.599 8.53794 285.599 10.3999H283.199C282.399 12.2689 281.73 13.1999 281.199 13.1999V12.7999H280.399L281.199 11.5999L280.399 9.59994H279.999L275.199 11.5999L273.598 10.3999H272.398C272.398 11.4689 271.46 11.9999 269.597 11.9999C270.66 9.33694 271.597 7.73795 272.398 7.19995H274.797L276.797 8.39995L277.997 7.59995L277.197 5.59996V2.79998L277.997 2.39998C278.26 2.39998 278.929 3.59998 279.997 5.99996L281.997 7.59995C284.657 2.79998 286.797 0.399997 288.397 0.399997H288.4ZM282.4 17.9999C289.862 29.9998 293.599 37.4688 293.599 40.3997V40.7997H293.199C290.261 38.3997 288.261 37.1998 287.199 37.1998L291.999 65.5996H292.399C295.06 65.0686 300.797 61.8686 309.597 55.9996L310.398 54.7996L309.597 52.3997C310.128 47.0687 311.328 44.3997 313.198 44.3997C316.129 44.3997 318.929 46.7997 321.597 51.5997V54.3996L319.997 55.9996H319.197L316.797 54.7996H313.997C313.728 56.9366 307.597 60.9366 295.597 66.7996L292.798 68.7996C294.66 79.1995 295.597 89.3304 295.597 99.1994C295.06 103.73 294.529 105.999 293.997 105.999C293.198 105.999 291.729 97.4614 289.598 80.3985C286.128 62.7996 283.328 45.5997 281.198 28.7998C280.129 27.1998 279.597 25.8678 279.597 24.7998C279.597 21.8689 280.527 19.5999 282.397 17.9999H282.4ZM449.999 57.1996C456.398 63.3366 459.598 67.1996 459.598 68.7996V69.1995H458.398L455.998 68.3996V68.7996C455.998 69.8675 457.998 74.3995 461.998 82.3985C463.598 86.9294 464.398 89.7304 464.398 90.7984V95.1984C464.398 100.798 461.729 104.13 456.398 105.198H455.598C451.862 104.397 448.13 102.397 444.4 99.1984C443.599 104.798 440.662 107.598 435.599 107.598H432.399C428.661 104.397 426.399 102.797 425.598 102.797C423.199 108.397 418.798 111.197 412.399 111.197C407.061 111.197 402.661 106.797 399.199 97.9974L397.999 96.7974H396.399C394.798 96.7974 391.999 99.1974 387.999 103.997C386.931 105.598 386.399 106.928 386.399 107.997C386.399 110.129 391.061 112.928 400.399 116.396C402.799 117.996 403.999 119.856 403.999 121.996V122.395C403.999 125.858 403.462 127.596 402.399 127.596C394.129 125.196 389.461 123.995 388.399 123.995H385.999C378.262 123.995 367.861 131.596 354.799 146.795C350.262 149.995 346.661 151.596 343.999 151.596H341.599C338.661 151.326 335.731 149.858 332.799 147.196C330.931 143.727 329.861 140.527 329.599 137.596C329.599 131.995 332.4 125.196 337.999 117.196L343.199 111.196V110.395C340.53 107.996 338.53 104.659 337.199 100.395H336.399C336.399 103.327 334.93 106.926 331.999 111.196C327.199 115.727 322.661 117.996 318.399 117.996C312.261 117.996 307.73 114.128 304.798 106.395L303.998 96.7954L305.198 86.3954C303.86 86.3954 301.998 93.4584 299.597 107.596C297.46 113.995 295.199 117.196 292.798 117.196H291.598C289.461 117.196 286.93 114.926 283.998 110.395C282.129 104.258 281.198 100.527 281.198 99.1964C281.729 91.9964 282.529 88.3954 283.597 88.3954H283.997L283.597 92.7954C283.597 103.457 285.729 109.596 289.997 111.195H291.997C294.929 111.195 297.459 104.795 299.596 91.9954C302.528 81.3265 305.459 75.9955 308.397 75.9955H309.596L309.996 76.3955V78.7955C308.396 88.1274 307.596 93.8584 307.596 95.9954C307.596 102.127 309.459 106.127 313.197 107.995C314.797 108.795 316.528 109.195 318.397 109.195H318.796C324.658 109.195 329.596 105.857 333.596 99.1954L334.397 97.5954C334.397 94.1264 332.796 87.3254 329.596 77.1955V66.7956H329.996V65.9956C332.658 65.9956 335.596 73.9955 338.796 89.9954C340.658 98.5264 344.397 102.795 349.996 102.795H350.396C353.058 102.795 355.727 101.995 358.396 100.395V99.1954C358.396 97.5954 354.795 89.0574 347.595 73.5955C347.058 71.4645 346.795 69.7336 346.795 68.3956V67.1956C346.795 63.9956 347.058 62.1326 347.595 61.5956C352.126 64.2646 355.196 67.9956 356.795 72.7955L356.396 73.5955H355.596L353.197 72.7955C359.328 83.7265 362.397 92.5264 362.397 99.1954V99.9954C362.397 106.658 359.197 110.658 352.796 111.995H346.796C345.459 111.995 343.459 113.995 340.796 117.995C338.127 120.658 335.459 125.457 332.796 132.394L332.396 135.194V137.994C332.396 143.325 335.058 145.994 340.396 145.994C344.658 145.994 352.258 139.194 363.196 125.595C371.196 119.994 377.858 116.394 383.196 114.794L382.396 110.394V109.595C382.396 102.925 385.595 96.3944 391.996 89.9944C394.127 88.1264 396.396 87.1944 398.796 87.1944H399.996C402.127 88.5254 403.727 90.9244 404.796 94.3934C406.658 99.4564 409.459 101.994 413.196 101.994H415.595C420.126 101.994 424.258 98.3934 427.995 91.1944L429.995 89.9944H430.795L430.396 93.1944V95.5944C433.058 97.4554 435.459 98.3934 437.595 98.3934C441.058 98.3934 443.595 95.3254 445.196 89.1944L447.196 87.9944L447.595 88.3934V91.1944H447.195V91.5944C450.126 94.5254 453.194 95.9934 456.394 95.9934H457.593L460.394 95.5944V94.7944C460.394 93.1944 457.856 86.9254 452.794 75.9945C451.994 72.7945 450.394 69.0635 447.994 64.7946V62.3946C448.254 58.9326 448.924 57.1946 449.994 57.1946L449.999 57.1996ZM284.4 7.99995C287.331 7.46895 288.799 6.39996 288.799 4.79997V3.99997H287.599C285.999 3.99997 284.929 5.33697 284.399 7.99995H284.4ZM301.599 12.7999C307.462 15.1999 311.599 18.6689 313.999 23.1999C315.062 26.1378 315.599 28.2688 315.599 29.5998V31.1998L316.399 31.9998L341.999 20.3999L353.199 16.7999L353.999 17.9999V18.3999C353.199 19.7379 345.061 23.1998 329.599 28.7998C321.062 32.7998 311.462 37.7378 300.799 43.5997H300.399V41.9997C300.399 39.8687 303.999 37.4688 311.199 34.7998L313.999 32.3998V29.9998C313.999 25.4688 309.861 20.5379 301.599 15.1999L300.799 13.1999L301.599 12.7999ZM311.999 51.1997V51.5997L314.399 52.3997V49.9997L313.598 49.1997C312.528 49.1997 311.998 49.8687 311.998 51.1997H311.999ZM316.799 49.9997V51.5997L317.199 52.3997H318.799C318.799 50.7997 318.129 49.9997 316.799 49.9997ZM324.399 7.19995H325.199C325.73 7.19995 325.999 7.73795 325.999 8.79994C326.53 8.79994 328.13 9.86794 330.799 11.9999C328.931 16.5379 326.661 18.7999 323.999 18.7999C322.399 18.7999 321.599 17.1999 321.599 13.9999C323.199 9.46894 324.129 7.19995 324.399 7.19995ZM323.999 11.9999L323.599 15.1999H325.2L326.4 14.7999V13.9999C326.4 12.6689 325.6 11.9999 324 11.9999H323.999ZM345.999 37.5998H346.399C349.061 40.5377 350.399 43.0687 350.399 45.1997V46.7997C350.399 48.9367 349.598 49.9997 347.999 49.9997H346.799C345.999 49.9997 345.33 49.4687 344.799 48.3997H344.399C342.261 51.0687 340.399 52.3997 338.798 52.3997C336.399 52.3997 335.061 50.7997 334.798 47.5997V43.5997L332.798 45.1997L331.998 44.3997V43.5997C331.998 41.1997 333.598 39.5997 336.798 38.7997H337.998C337.461 40.1367 337.06 42.3997 336.798 45.5997C337.329 47.4687 338.261 48.3997 339.598 48.3997C340.93 47.8687 341.73 47.0687 341.998 45.9997L340.798 40.3997V38.3998H341.198C341.729 38.3998 343.06 40.6687 345.198 45.1997L345.998 45.5997H347.998L345.198 38.3998L345.998 37.5998H345.999ZM345.999 123.599H346.399V124.798C346.399 125.329 347.598 126.13 349.999 127.198L350.399 128.798V130.798C350.399 132.929 348.53 134.529 344.798 135.599C342.93 135.061 341.998 134.13 341.998 132.798V131.599C341.998 128.659 343.328 125.999 345.998 123.599H345.999ZM345.199 127.999L343.999 131.199V132.398H346.399C347.999 131.861 348.798 131.061 348.798 129.999L345.598 127.999H345.198H345.199ZM360.799 0.399997L364.799 6.39996C366.661 2.93798 368.4 0.799995 369.999 0H372.799C373.33 0 373.862 1.19999 374.4 3.59998C374.4 5.46896 372.662 7.46895 369.2 9.59994C367.331 9.59994 365.599 10.3999 364 11.9999L363.2 8.79994L358.4 11.5999L356 9.59994H354.8L352.8 11.5999H351.6V10.3999C351.6 8.79994 352.663 7.46895 354.8 6.39996H356.8L358.8 7.99995C360.131 7.99995 360.932 7.46895 361.2 6.39996L360.4 2.79998V1.19999L360.8 0.399997H360.799ZM363.199 14.7999C364.262 15.5999 366.799 20.1369 370.799 28.3998C372.661 32.1378 373.599 34.9378 373.599 36.7998V37.1998L373.2 37.5998H372.8L368 33.1998L367.6 34.7998V35.9998L372.8 65.5996C375.463 81.8615 376.8 91.5994 376.8 94.7994V95.1994C376.263 105.861 375.6 111.199 374.8 111.199H373.2V109.199C373.2 101.999 369.862 78.6625 363.2 39.1997C362.4 28.2688 361.463 22.7999 360.4 22.7999C360.66 17.4689 361.599 14.7999 363.199 14.7999ZM370.799 2.79998C368.661 4.39997 367.599 5.73796 367.599 6.79996C370.262 5.99996 371.599 5.06897 371.599 3.99997L370.799 2.79998ZM397.199 131.999H397.999V132.799C397.999 134.662 395.199 136.662 389.599 138.799C375.999 146.799 369.062 150.799 368.799 150.799L367.999 149.6C367.999 147.999 369.861 146.262 373.599 144.399C381.059 140.129 388.929 135.999 397.199 131.999ZM402.399 53.5997H403.199C403.999 54.1376 404.799 55.1996 405.598 56.7996C405.329 57.8676 404.93 58.3996 404.399 58.3996L402.399 56.7996H401.999C399.861 56.7996 398.262 62.3996 397.199 73.5995H396.399C395.861 73.0615 395.061 71.3365 393.999 68.3996C391.861 64.6686 390.262 62.7996 389.199 62.7996L388.399 63.9996H387.599C384.661 63.9996 383.2 62.6686 383.2 59.9996V58.3996C383.2 58.1376 384 57.8686 385.599 57.5996C389.062 57.5996 392.662 60.7996 396.4 67.1996C397.46 58.1376 399.46 53.5997 402.4 53.5997H402.399ZM393.999 32.7998C395.33 33.3368 395.999 34.2688 395.999 35.5998V37.5998L395.199 38.3998H394.399L392.399 35.9998L390.798 36.7998V38.7997L392.798 39.1997H393.998L400.398 37.1998C400.929 37.1998 401.198 37.4688 401.198 37.9998C401.198 38.7997 398.798 40.5377 393.998 43.1997C392.93 44.5367 391.729 45.1997 390.398 45.1997H389.998L390.798 41.9997L387.998 39.5997V38.7997C387.998 36.1378 389.998 34.1378 393.998 32.7998H393.999ZM438.399 120.799H438.798L439.598 121.199V124.799C439.598 126.662 437.861 127.6 434.399 127.6C432.798 129.999 430.93 131.2 428.798 131.2H427.998C426.398 129.6 425.329 128.8 424.798 128.8C423.73 128.8 419.86 132.8 413.198 140.8C407.86 145.331 401.86 149.2 395.198 152.4L393.998 153.2H392.398V152.399C392.398 151.862 397.06 148.663 406.398 142.799C409.06 140.662 414.66 135.33 423.198 126.799C423.998 125.999 425.06 125.6 426.398 125.6H427.198L430.398 127.6C432.26 126.531 433.198 124.662 433.198 121.999H433.998L435.598 124.398H437.598V123.998C437.598 121.858 437.858 120.798 438.398 120.798L438.399 120.799ZM411.199 70.3995V71.1995L408.799 78.3985V80.3985C408.799 81.7305 409.33 82.6625 410.4 83.1995H411.2L413.599 80.3985H413.999L414.799 81.1995C413.731 85.7304 412.13 87.9994 409.999 87.9994C407.861 86.6624 406.799 84.9305 406.799 82.7995V81.1995C406.799 77.7305 408.259 74.1305 411.199 70.3995ZM434.799 34.3998H435.599C436.4 34.6688 437.062 35.4688 437.599 36.7998V38.3998L436.799 39.1997H436.399L434.399 36.7998C431.461 38.9367 429.999 41.8677 429.999 45.5997L427.999 53.1997H427.599C425.2 46.2687 423.862 42.7997 423.599 42.7997H422.399L421.598 43.5997H421.198C417.998 42.5367 416.398 41.0687 416.398 39.1997V37.5998C417.198 37.0688 417.998 36.7998 418.797 36.7998C422.797 36.7998 425.729 40.1367 427.597 46.7997H427.997C428.797 38.5377 431.057 34.3998 434.797 34.3998H434.799ZM432.399 59.9996C435.861 60.2686 437.598 60.9376 437.598 61.9996V62.3996C437.598 64.7996 435.73 67.9996 431.998 71.9995C427.461 75.1995 423.998 76.7995 421.598 76.7995V75.9995C422.399 74.6625 424.93 72.3995 429.199 69.1995V68.7996L427.999 68.3996C422.399 68.9376 419.599 69.3375 419.599 69.5995H418.799L417.999 69.1995V68.3996C419.599 63.8686 421.33 61.5996 423.199 61.5996L432.399 59.9996ZM423.999 16.3999C423.999 18.2689 424.53 19.1999 425.599 19.1999C428.262 20.2689 429.599 21.5999 429.599 23.1999C429.599 25.3368 427.862 27.1998 424.4 28.7998H422.8C421.2 28.7998 420.131 27.7368 419.6 25.5998C421.46 19.7379 422.93 16.6689 424 16.3999H423.999ZM422.799 21.5999L421.999 25.9998V26.3998H423.999C425.062 26.3998 426.262 25.5998 427.599 23.9998V23.1999L422.799 21.5999ZM462.798 130.399L463.198 131.6C463.198 133.2 456.398 136.531 442.799 141.6C437.999 144.262 435.199 145.6 434.4 145.6L434 145.2V143.6C434.8 141.999 441.862 138.662 455.199 133.6C458.929 131.46 461.459 130.4 462.799 130.4L462.798 130.399ZM454.398 112.799C459.461 114.399 461.998 116.262 461.998 118.399C461.998 120 460.93 122.399 458.798 125.6C454.529 123.731 451.73 121.6 450.4 119.2C452.529 114.93 453.859 112.8 454.399 112.8L454.398 112.799Z" fill="white"/>
</g>
<defs>
<clipPath id="clip0_12_2">
<rect width="464.4" height="155.6" fill="white"/>
</clipPath>
</defs>
</svg>
